<?xml version="1.0" standalone="no"?>
<!DOCTYPE svg PUBLIC "-//W3C//DTD SVG 20010904//EN"
 "http://www.w3.org/TR/2001/REC-SVG-20010904/DTD/svg10.dtd">
<svg version="1.0" xmlns="http://www.w3.org/2000/svg"
 width="700.000000pt" height="700.000000pt" viewBox="0 0 700.000000 700.000000"
 preserveAspectRatio="xMidYMid meet">
<metadata>
Created by potrace 1.14, written by Peter Selinger 2001-2017
</metadata>
<g transform="translate(0.000000,700.000000) scale(0.100000,-0.100000)"
fill="#000000" stroke="none">
<path d="M2700 6953 c0 -26 15 -121 33 -209 l32 -162 -100 -27 c-99 -28 -234
-78 -289 -107 l-29 -15 -135 103 c-74 57 -139 104 -144 104 -13 0 -8 -38 25
-213 l24 -127 -36 -27 c-20 -15 -70 -58 -112 -94 l-75 -67 -83 24 c-98 28
-131 30 -131 8 0 -8 19 -56 41 -104 27 -57 39 -96 35 -107 -6 -14 -19 4 -55
73 -65 126 -89 155 -184 218 -97 64 -355 193 -451 224 -64 21 -70 22 -93 7
-32 -22 -22 -31 16 -15 28 11 40 8 153 -43 68 -30 177 -84 243 -120 l120 -65
12 -48 c14 -62 16 -126 3 -158 -9 -24 -14 -26 -67 -26 -109 1 -264 75 -299
143 -33 63 -184 287 -194 287 -19 0 -11 -16 80 -156 109 -168 147 -243 165
-332 21 -95 19 -168 -5 -216 -29 -60 -119 -176 -254 -327 -162 -183 -265 -330
-286 -411 -32 -118 -30 -331 6 -501 18 -86 18 -87 -4 -87 -10 0 -27 -7 -39
-15 -21 -14 -25 -14 -60 8 -42 26 -146 68 -294 116 -53 18 -136 51 -183 75
-48 24 -85 39 -83 32 7 -23 148 -87 323 -146 99 -34 197 -72 217 -86 33 -22
37 -29 37 -68 0 -27 6 -48 15 -56 14 -12 13 -17 -12 -42 -61 -64 -249 -169
-300 -167 -10 0 10 11 45 23 59 23 101 46 57 32 -66 -20 -218 -47 -295 -53
l-90 -6 0 -53 0 -53 33 5 c206 37 427 135 554 247 29 25 43 31 87 31 l53 1 36
-120 c20 -66 38 -142 40 -168 3 -26 12 -56 21 -66 16 -18 14 -21 -47 -64 -35
-26 -91 -69 -123 -96 -49 -42 -78 -57 -169 -87 -90 -30 -401 -142 -468 -169
-14 -6 -26 -45 -14 -45 2 0 32 12 68 26 58 24 72 26 149 20 147 -12 267 -44
494 -133 104 -41 149 -54 177 -51 22 2 39 0 39 -3 0 -4 -107 -117 -239 -251
-236 -241 -239 -243 -318 -275 -43 -18 -105 -49 -137 -68 -32 -19 -62 -32 -67
-29 -5 3 -9 17 -9 30 0 19 -22 48 -80 105 -67 67 -80 76 -80 57 0 -16 22 -46
65 -88 87 -86 87 -101 0 -191 -54 -56 -65 -73 -64 -101 l0 -33 16 25 c9 14 51
59 92 100 114 114 277 192 471 226 96 17 185 19 590 15 143 -2 212 1 260 12
36 8 66 14 68 12 7 -7 -56 -229 -119 -420 -38 -115 -72 -232 -74 -260 -5 -71
-48 -281 -97 -470 -39 -156 -130 -447 -146 -473 -5 -8 -18 24 -36 85 -35 126
-77 203 -139 259 -84 76 -88 67 -7 -14 75 -75 109 -135 124 -216 2 -13 9 -33
14 -43 5 -10 13 -52 17 -94 6 -66 4 -82 -14 -117 -52 -102 -219 -183 -501
-242 -236 -50 -308 -70 -443 -125 -12 -5 -3 16 29 71 26 44 55 93 64 109 209
364 267 468 342 615 49 96 93 183 99 193 9 17 16 15 94 -27 47 -25 85 -43 85
-41 0 9 -102 65 -165 89 -111 44 -295 139 -378 194 -91 62 -188 151 -219 200
-26 42 -36 27 -13 -19 30 -57 108 -131 212 -200 100 -66 134 -84 281 -149 39
-18 72 -35 72 -37 0 -15 -213 -425 -223 -427 -6 -2 -57 -10 -112 -19 -55 -9
-133 -26 -172 -38 l-73 -22 0 -48 c0 -28 5 -49 13 -52 9 -4 9 -6 0 -6 -7 -1
-13 -7 -13 -14 0 -11 11 -12 47 -6 27 4 85 8 130 8 l82 1 -110 -182 c-61 -101
-119 -195 -130 -210 -10 -15 -19 -34 -19 -43 0 -14 4 -13 29 4 44 32 276 106
456 146 210 46 286 69 367 111 37 19 74 34 82 34 8 0 33 24 57 53 23 28 40 47
38 40 -2 -7 -61 -80 -132 -162 l-127 -150 -50 6 c-34 4 -50 2 -50 -6 0 -6 15
-11 33 -11 66 0 148 -87 192 -204 10 -26 37 -72 60 -102 l42 -54 6 61 c4 33 4
120 0 193 -4 95 -3 135 5 140 31 19 107 -55 119 -116 6 -32 7 -32 33 -16 49
31 155 -140 174 -283 10 -78 13 -84 58 -132 26 -28 50 -48 53 -45 3 3 -5 43
-18 89 -47 162 -43 184 25 156 34 -14 66 -48 121 -128 l32 -46 30 20 c28 18
24 18 -16 2 -12 -4 -22 4 -38 30 -11 20 -21 38 -21 39 0 2 28 6 62 9 86 8 168
-19 233 -77 55 -48 104 -128 108 -174 2 -28 5 -30 45 -30 23 -1 42 2 42 7 0
17 -41 60 -53 56 -7 -2 -23 18 -37 48 -32 67 -93 124 -175 167 -54 28 -76 34
-122 33 l-56 -2 62 38 c86 53 91 64 16 36 -12 -5 0 14 30 45 29 30 41 48 28
41 -31 -16 -54 -2 -92 55 -39 60 -39 89 2 189 37 91 186 345 203 345 43 0 284
-238 333 -329 18 -34 34 -61 36 -61 1 0 6 7 9 16 3 8 2 13 -3 10 -12 -8 -22
20 -15 38 12 31 108 63 265 90 47 8 48 4 56 -139 6 -135 -2 -164 -49 -166 -18
-1 -2 -5 35 -10 60 -8 295 -77 339 -100 15 -8 13 -15 -18 -66 -18 -31 -36 -65
-40 -75 -3 -11 -15 -18 -29 -18 -19 0 -23 4 -19 17 5 15 3 15 -11 -2 -14 -18
-35 -21 -185 -31 -94 -6 -172 -13 -175 -16 -3 -2 2 -18 10 -35 15 -30 16 -30
114 -36 142 -7 170 -28 102 -74 -43 -29 -99 -37 -164 -23 l-54 11 -6 58 c-7
67 -35 143 -72 199 -22 34 -24 43 -15 68 6 16 30 48 53 72 22 23 37 42 31 42
-12 0 -62 -45 -91 -83 l-22 -29 -48 38 c-26 21 -52 41 -56 45 -5 4 5 35 22 70
17 35 31 77 30 94 0 24 -4 17 -19 -30 -12 -37 -31 -72 -50 -90 -27 -26 -32
-27 -57 -15 -34 16 -219 25 -252 13 -17 -7 11 -9 90 -9 150 0 205 -20 295
-109 59 -57 125 -167 111 -181 -3 -3 -8 4 -12 15 -5 15 -12 20 -28 16 -69 -17
-86 -13 -107 20 -31 51 -106 114 -168 143 -47 22 -71 27 -139 27 -48 0 -87 -5
-93 -11 -9 -9 0 -9 36 -3 124 23 266 -40 336 -150 32 -51 34 -61 12 -61 -8 0
-39 -22 -67 -49 l-52 -50 -54 66 c-52 63 -123 123 -145 123 -6 0 12 -15 39
-34 77 -52 164 -181 165 -243 0 -13 5 -23 10 -23 6 0 10 9 10 20 0 13 7 20 18
20 10 0 33 20 52 45 19 25 40 45 47 45 18 0 35 -47 27 -74 -3 -11 -8 -29 -10
-38 -4 -14 1 -18 19 -18 31 0 35 11 30 80 -4 46 -2 60 17 83 14 18 28 26 38
22 8 -3 19 0 24 7 7 10 8 10 7 -2 -1 -8 2 -24 7 -35 5 -11 9 -50 9 -87 l0 -68
126 0 c124 0 187 12 204 40 4 6 25 0 55 -15 51 -26 86 -33 75 -15 -4 6 -29 22
-56 35 l-49 25 23 38 c13 20 54 96 90 169 50 100 63 134 54 141 -7 6 -57 25
-112 42 -55 18 -103 34 -107 37 -4 2 18 27 50 56 95 85 162 174 162 215 0 7
11 1 24 -15 l24 -29 -18 -80 c-11 -45 -28 -105 -40 -134 -11 -29 -18 -55 -16
-58 3 -3 8 1 11 9 27 74 48 145 60 198 l13 64 -36 55 -37 55 -6 -45 c-4 -25
-13 -56 -20 -69 -16 -30 -101 -120 -161 -170 -42 -36 -50 -39 -87 -33 -23 4
-41 12 -41 18 0 7 20 32 46 56 25 25 73 85 107 135 54 79 61 96 65 148 3 39 0
62 -8 70 -10 10 -11 4 -6 -25 4 -21 2 -55 -4 -76 -13 -52 -77 -148 -136 -208
l-48 -49 -8 101 c-11 142 -16 154 -73 154 -61 0 -179 -27 -237 -54 l-47 -22
-33 40 c-66 81 -64 70 -16 122 70 77 163 141 219 153 53 12 129 -2 209 -36 21
-9 74 -16 130 -18 74 -2 108 -8 155 -28 196 -82 343 -205 414 -344 27 -53 54
-168 46 -194 -5 -13 3 -30 24 -54 44 -50 55 -101 55 -262 1 -107 4 -143 14
-143 9 0 12 29 12 112 0 129 -9 132 80 -30 25 -45 51 -82 58 -82 6 0 12 2 12
5 0 3 -27 53 -60 112 -33 58 -60 111 -60 117 0 18 87 99 174 160 43 31 81 56
85 56 5 0 2 -30 -6 -67 -16 -84 -39 -238 -48 -320 -5 -50 -3 -63 8 -63 11 0
15 23 20 93 8 117 47 364 92 572 19 88 43 216 54 285 12 69 23 140 27 158 l5
33 26 -21 c15 -12 41 -20 63 -20 69 0 119 83 106 173 -7 47 -44 118 -65 125
-8 3 -6 -6 8 -24 21 -29 41 -110 41 -165 0 -50 -74 -112 -109 -90 -10 7 -11
13 -1 31 11 20 9 25 -14 44 -14 11 -27 35 -29 51 -2 17 -3 12 -1 -10 7 -67 9
-79 18 -95 5 -8 -2 -5 -15 8 -20 19 -24 32 -24 80 0 78 10 106 51 152 41 45
35 54 -8 13 -33 -32 -43 -26 -34 22 7 35 9 36 38 29 18 -3 68 -26 112 -49 78
-41 81 -44 88 -85 18 -102 110 -219 210 -265 69 -31 161 -55 215 -55 l42 0 16
-53 c84 -293 62 -483 -101 -869 -27 -64 -28 -68 -16 -68 5 0 16 17 24 38 12
31 21 39 59 49 101 27 391 224 510 346 61 63 68 67 83 52 9 -9 16 -19 16 -21
0 -3 -17 -31 -39 -62 -80 -117 -207 -228 -402 -349 -46 -29 -76 -53 -66 -53
25 0 201 121 317 218 55 46 118 111 149 153 30 41 58 78 62 83 4 5 33 -6 64
-23 31 -18 62 -30 67 -29 6 2 -19 20 -56 39 -52 27 -66 38 -62 52 4 17 3 17
-12 4 -14 -13 -20 -13 -34 -3 -15 11 -16 14 -2 28 17 16 10 18 189 -48 109
-40 319 -94 369 -94 20 0 30 -8 43 -37 9 -21 19 -41 21 -45 2 -5 -23 -8 -55
-8 -42 0 -54 -3 -43 -10 8 -6 36 -8 61 -4 35 4 48 2 59 -11 8 -9 26 -71 40
-138 20 -89 31 -123 43 -125 14 -3 13 4 -4 60 -19 66 -43 179 -54 261 -5 38
-3 47 9 47 8 0 18 -5 22 -11 3 -6 36 -24 73 -41 50 -23 86 -31 149 -35 45 -3
82 -8 82 -11 0 -10 -96 -139 -152 -204 l-59 -68 291 0 290 0 0 38 c-1 20 -7
73 -15 117 -12 70 -12 83 1 102 8 13 16 23 18 23 2 0 32 -13 68 -29 35 -16 92
-37 125 -45 60 -16 62 -16 158 14 54 17 99 30 101 30 2 0 4 7 4 15 0 19 8 20
-91 -16 -71 -26 -93 -30 -139 -25 -44 5 -211 64 -226 79 -3 2 5 26 15 53 11
27 25 67 30 89 l11 40 82 2 c56 2 93 -3 116 -13 27 -13 164 -44 193 -44 5 0 9
4 9 9 0 5 -21 12 -47 16 -27 3 -73 14 -103 23 l-55 16 48 9 c26 5 47 13 47 17
0 5 26 7 58 5 l57 -4 -55 12 -55 12 -8 50 c-8 47 -30 146 -42 190 -5 15 2 24
27 38 31 16 37 17 77 2 51 -18 51 -18 51 -7 0 5 -18 15 -40 22 l-41 13 28 29
c15 15 33 28 40 28 7 0 13 10 13 23 0 21 -6 17 -53 -29 -32 -30 -72 -57 -98
-66 -24 -9 -43 -19 -42 -24 1 -5 12 -36 24 -69 12 -33 24 -92 27 -130 l4 -71
-41 4 c-37 4 -41 2 -41 -18 0 -17 -5 -21 -27 -18 -22 2 -29 9 -31 29 -2 21
-10 28 -34 33 -50 10 -56 7 -63 -24 -7 -30 -29 -41 -38 -17 -3 6 -6 -3 -6 -20
-1 -37 -58 -208 -90 -271 l-21 -42 -39 19 c-21 11 -45 31 -55 45 -19 30 -16
32 24 11 46 -24 35 -9 -14 20 -27 16 -46 35 -50 50 -4 16 -19 30 -40 39 -19 8
-44 24 -55 35 -21 21 -21 21 -21 1 0 -11 -4 -20 -9 -20 -5 0 -8 -11 -8 -24 0
-20 12 -31 69 -61 38 -20 67 -39 64 -42 -3 -3 -37 13 -75 36 -38 22 -73 41
-78 41 -35 0 -96 123 -85 173 7 33 22 17 23 -25 0 -24 4 -52 8 -63 7 -15 10
-9 15 30 3 28 11 82 18 120 6 39 12 87 12 108 1 36 3 38 26 32 14 -4 39 -8 55
-9 47 -4 48 -5 37 -18 -5 -7 -17 -44 -26 -83 -9 -38 -19 -76 -21 -83 -7 -19
58 29 90 67 28 33 28 33 13 76 -9 24 -14 46 -11 49 11 10 65 7 58 -4 -3 -5 -2
-17 3 -26 8 -14 10 -14 22 1 12 14 16 12 43 -17 l29 -33 -24 35 c-39 56 -40
59 -17 53 11 -3 37 -25 57 -49 50 -60 54 -46 5 18 l-40 53 43 49 c49 56 77 63
156 39 59 -19 100 -13 43 6 -71 23 -125 60 -125 84 0 42 14 49 40 22 35 -37
125 -68 177 -60 63 9 61 22 -3 17 -64 -5 -124 14 -170 57 -29 26 -32 34 -36
108 -4 66 -10 90 -40 147 l-36 67 55 55 c43 43 48 52 25 40 -16 -8 -43 -31
-60 -50 l-31 -36 -30 31 -31 30 26 34 c25 33 59 124 49 133 -2 3 -7 -4 -11
-14 -14 -46 -37 -93 -57 -118 l-22 -27 -60 27 c-50 23 -74 28 -145 28 -47 0
-93 -4 -102 -9 -11 -7 17 -10 95 -10 109 0 114 -1 175 -34 71 -39 109 -79 149
-161 25 -49 28 -66 28 -160 0 -58 -4 -114 -8 -124 -7 -19 -8 -19 -23 2 -18 26
-49 28 -64 4 -9 -14 -10 -14 -5 6 9 30 8 142 -1 179 -28 117 -143 227 -252
240 -76 9 -111 -2 -182 -57 -36 -27 -68 -49 -72 -50 -17 -1 21 66 56 97 27 24
32 33 17 28 -26 -8 -65 31 -76 78 -6 23 -9 27 -12 14 -3 -10 6 -41 20 -69 l25
-50 -24 -36 c-14 -19 -27 -46 -30 -59 -9 -33 -37 -29 -73 12 -25 29 -31 45
-31 80 0 46 33 144 53 157 9 6 9 10 -1 16 -11 7 -11 14 -1 36 l13 27 16 -21
c16 -22 17 -21 44 32 36 72 155 204 274 305 l97 82 22 -22 c34 -33 121 -183
145 -249 19 -54 22 -57 32 -37 6 12 22 30 36 41 28 20 143 47 205 48 51 0 85
9 85 22 0 6 -13 8 -31 4 -16 -3 -72 -11 -122 -17 -97 -12 -155 -30 -174 -55
-9 -12 -14 -7 -27 34 -9 27 -30 71 -47 98 l-31 48 28 24 c52 42 138 95 219
133 72 35 76 38 40 33 -37 -4 -48 1 -160 80 -66 47 -150 102 -186 123 l-66 37
-51 120 c-28 65 -49 123 -46 127 3 5 46 37 97 71 249 170 352 353 272 483 -24
39 -24 39 -25 12 0 -62 -53 -142 -114 -174 -61 -32 -290 16 -396 83 -165 105
-211 137 -277 193 -73 61 -102 79 -68 41 20 -22 7 -28 -14 -7 -8 7 -7 -1 4
-21 9 -19 69 -92 133 -163 142 -158 219 -264 306 -424 69 -127 171 -352 181
-401 3 -16 -29 40 -71 124 -71 140 -101 187 -74 116 26 -67 40 -171 39 -282
l-2 -117 -12 115 c-19 170 -51 274 -149 484 -29 62 -166 269 -290 436 -22 30
-78 118 -125 195 -46 77 -129 204 -185 283 -56 79 -108 153 -116 164 -12 18
-13 21 0 16 8 -2 25 8 38 24 13 15 28 28 32 28 16 0 110 -194 151 -310 36
-104 47 -125 93 -172 96 -100 347 -244 496 -285 88 -24 250 -23 313 1 47 18
97 65 97 92 0 8 5 14 10 14 6 0 10 5 10 12 0 9 -3 9 -11 1 -9 -9 -24 -1 -60
30 -26 23 -91 65 -144 92 -52 28 -183 110 -291 184 l-196 134 -107 162 -107
162 -12 104 c-6 57 -21 140 -32 184 -27 102 -118 325 -176 433 -56 104 -40
107 52 10 182 -191 301 -389 343 -565 14 -58 20 -62 44 -35 26 28 22 133 -8
236 -25 88 -95 238 -145 311 -40 59 -45 74 -15 40 15 -16 78 -86 140 -155 131
-145 218 -230 237 -230 49 1 38 20 -102 174 -77 86 -144 156 -147 156 -5 0 12
-20 179 -214 43 -49 76 -91 74 -93 -10 -10 -51 29 -256 247 -156 167 -231 240
-246 240 -23 0 -49 24 -57 55 -8 28 35 77 60 68 35 -12 53 -36 53 -70 0 -18 5
-33 10 -33 18 0 11 57 -11 84 -11 14 -29 26 -40 26 -28 0 -24 10 26 69 25 29
48 64 52 79 3 14 1 62 -6 106 -7 45 -16 155 -21 246 -4 91 -14 188 -21 215
-34 137 -122 236 -259 292 -71 29 -122 43 -448 127 -143 37 -152 43 -243 141
-137 148 -218 311 -293 588 -27 100 -54 167 -66 167 -4 0 3 -30 16 -67 12 -38
37 -119 54 -182 26 -93 30 -119 21 -140 -10 -23 -10 -24 3 -8 9 12 16 15 21 7
13 -21 -6 -61 -50 -105 l-44 -45 -48 21 c-79 34 -132 79 -133 113 l0 29 45
-42 c24 -22 50 -41 56 -41 7 0 -9 16 -34 35 -25 19 -50 42 -55 51 -21 38 31
237 78 303 33 46 32 73 -1 31 -74 -94 -109 -224 -109 -406 l0 -133 -87 46
c-49 25 -93 52 -99 59 -6 8 -14 41 -17 75 -10 95 -15 97 -80 31 l-57 -58 -108
27 c-96 24 -107 29 -110 50 -10 72 -56 256 -67 267 -15 17 -17 14 -115 -143
l-68 -110 -143 -6 c-79 -3 -167 -9 -194 -13 l-51 -7 -99 193 c-109 209 -135
239 -135 151z m140 -204 c45 -89 80 -171 80 -188 0 -21 10 -38 35 -60 19 -17
54 -67 77 -111 23 -44 64 -108 91 -142 41 -51 48 -64 38 -77 -6 -9 -26 -46
-43 -83 -18 -38 -34 -68 -37 -68 -9 0 -40 80 -47 120 -4 19 -10 40 -14 45 -3
6 -15 32 -24 58 -10 27 -20 46 -22 44 -2 -2 3 -20 11 -40 14 -33 14 -37 0 -37
-8 0 -15 6 -15 13 0 6 -37 54 -81 105 l-81 93 25 42 25 42 -33 25 c-32 24 -35
32 -55 140 -11 63 -27 149 -35 191 -8 42 -15 85 -15 95 0 27 25 -15 120 -207z
m641 19 c-10 -75 -14 -176 -6 -153 2 6 9 57 16 114 7 66 15 98 20 89 4 -8 17
-63 27 -121 19 -105 19 -106 0 -124 -37 -34 -41 -51 -18 -90 13 -22 19 -45 16
-58 -3 -12 -33 -65 -67 -116 l-62 -94 -33 115 c-19 63 -34 119 -34 125 0 5 16
24 36 40 l37 31 -22 39 c-12 22 -26 47 -32 55 -9 13 -3 30 29 82 23 37 53 91
68 120 15 29 29 47 31 40 3 -7 0 -49 -6 -94z m435 -249 c5 -44 3 -62 -10 -80
-10 -14 -16 -44 -16 -74 0 -45 -4 -55 -35 -85 -25 -24 -36 -30 -40 -19 -36
101 -36 95 -4 136 21 25 28 44 24 58 -20 70 -18 83 21 130 l38 47 8 -28 c4
-16 10 -54 14 -85z m-547 62 c32 -44 27 -49 -31 -38 -53 9 -299 4 -370 -9 -36
-6 -38 -5 -38 19 0 14 5 29 11 33 21 13 122 21 266 23 l142 1 20 -29z m-1145
-86 l96 -77 0 -54 0 -54 48 -23 c26 -12 50 -26 53 -31 7 -9 24 -111 35 -206
l6 -55 -72 125 c-39 69 -77 130 -82 135 -10 9 38 -84 104 -202 16 -29 27 -53
24 -53 -4 0 -53 29 -111 65 l-104 66 15 41 c8 24 12 55 8 75 -5 28 -12 35 -48
45 -54 15 -61 21 -64 55 -1 15 -9 64 -17 108 -16 90 -16 128 1 121 6 -2 55
-39 108 -81z m1439 65 c121 -31 135 -37 148 -77 6 -19 9 -36 7 -39 -3 -2 -24
2 -46 10 -23 8 -88 27 -144 42 -57 15 -105 29 -107 31 -6 5 41 53 52 53 5 0
45 -9 90 -20z m-853 -29 c19 -16 31 -33 27 -37 -4 -5 -11 -3 -15 3 -16 26
-196 -36 -411 -141 l-72 -35 3 42 c3 39 6 44 48 64 122 60 323 131 370 132 8
0 31 -13 50 -28z m480 -10 c24 -7 24 -8 5 -18 -15 -8 -183 -25 -280 -28 -21 0
-16 35 7 44 27 11 231 12 268 2z m1205 -95 c55 -97 109 -168 201 -266 70 -73
74 -76 158 -99 134 -37 93 -37 -54 -1 -92 23 -141 40 -161 57 -36 30 -161 195
-213 281 l-38 63 24 35 c16 24 25 31 31 22 4 -7 28 -48 52 -92z m-1125 90 c0
-2 -8 -10 -17 -17 -16 -13 -17 -12 -4 4 13 16 21 21 21 13z m773 -175 c3 -14
4 -27 2 -29 -2 -2 -27 9 -56 24 -77 39 -176 74 -184 66 -10 -9 14 38 28 56 7
9 32 0 107 -39 80 -42 99 -56 103 -78z m-818 62 c9 -32 23 -78 31 -102 8 -25
14 -48 14 -53 0 -4 -49 -8 -108 -8 -126 0 -116 -6 -191 120 -37 61 -47 86 -38
92 6 4 71 8 144 8 l132 0 16 -57z m-567 32 c1 -1 -39 -17 -90 -35 -51 -17
-132 -50 -180 -72 -56 -26 -94 -38 -105 -33 -16 6 -16 8 7 27 41 34 181 96
244 107 33 6 61 13 64 16 4 4 52 -4 60 -10z m868 -24 c16 -5 55 -17 87 -26 38
-10 57 -21 57 -31 0 -21 31 -117 42 -129 5 -6 24 8 49 38 22 26 47 47 55 47
17 0 185 -82 223 -110 23 -16 44 -56 89 -168 3 -9 -13 -5 -44 11 -93 47 -320
126 -422 147 -56 11 -150 26 -210 32 -59 6 -108 12 -110 13 -2 1 25 44 58 94
63 94 71 99 126 82z m714 -33 c36 -148 70 -226 127 -288 38 -43 28 -52 -24
-20 -55 33 -122 175 -142 299 -7 46 -6 51 10 51 13 0 21 -12 29 -42z m-1556
-45 c11 -134 12 -130 -36 -138 -54 -9 -251 -53 -271 -60 -11 -5 -16 6 -21 47
-4 29 -10 63 -13 76 -5 20 4 26 73 58 66 30 233 91 255 93 3 1 9 -33 13 -76z
m1222 19 c54 -27 104 -70 104 -88 0 -8 -2 -14 -5 -14 -3 0 -48 21 -100 47 -77
39 -95 52 -95 70 0 19 3 21 28 14 15 -5 46 -18 68 -29z m-1173 -59 c-4 -21 0
-41 11 -58 14 -21 14 -24 1 -19 -12 5 -15 -2 -15 -35 0 -23 3 -41 6 -41 4 0
31 14 61 31 30 17 56 29 58 27 2 -2 -28 -22 -68 -44 l-72 -40 -1 129 c0 107 2
125 12 106 7 -13 10 -38 7 -56z m1319 -37 c3 -31 2 -33 -14 -25 -10 5 -18 12
-18 15 0 3 5 2 10 -1 17 -10 11 27 -7 48 -17 19 -17 20 3 9 14 -8 23 -24 26
-46z m-1957 20 c19 -8 35 -18 35 -21 0 -3 -33 -26 -72 -52 -40 -26 -108 -80
-150 -120 l-77 -73 50 -26 c41 -20 54 -34 70 -71 23 -54 18 -65 -15 -34 -14
13 -29 20 -35 17 -5 -4 -26 8 -46 25 -20 18 -48 33 -63 35 -117 12 -110 8
-152 97 -22 45 -35 83 -30 85 8 3 181 -45 184 -50 23 -46 30 -57 33 -54 2 2
-1 15 -6 29 -9 23 -4 31 60 91 70 67 157 135 172 136 4 0 23 -7 42 -14z m2056
-200 c-6 -15 -13 -3 -34 55 -41 118 -41 130 1 45 28 -55 38 -86 33 -100z
m-864 122 c11 -9 16 -9 23 2 6 10 25 11 81 6 191 -18 447 -82 629 -159 l105
-43 6 -70 c8 -81 26 -153 44 -174 7 -8 23 -37 36 -65 13 -27 25 -53 27 -57 14
-27 -258 99 -340 158 l-48 34 22 -53 c19 -44 22 -71 22 -182 0 -117 -3 -138
-28 -210 -27 -78 -67 -156 -104 -203 -47 -61 -368 -24 -559 63 -111 51 -245
149 -332 241 -43 46 -81 84 -83 84 -3 0 -18 -35 -33 -77 -29 -84 -114 -253
-126 -253 -4 0 -22 26 -40 58 -82 145 -279 374 -334 388 -17 4 -77 2 -135 -4
-89 -10 -117 -18 -186 -52 -45 -22 -116 -65 -158 -95 -43 -30 -79 -55 -82 -55
-3 0 0 9 6 19 5 11 10 52 10 91 0 75 13 112 72 198 l30 43 94 -7 c67 -5 94 -4
94 5 0 6 -9 34 -20 63 -11 29 -20 54 -20 55 0 6 121 63 178 83 l62 23 84 -52
c46 -28 87 -51 91 -51 4 0 5 35 1 78 l-6 78 156 38 c86 21 158 35 161 32 3 -3
0 -25 -7 -50 -15 -54 -10 -63 38 -71 68 -12 167 -46 213 -74 l47 -29 10 22 c6
11 22 49 36 83 13 35 34 77 46 93 12 17 19 37 16 45 -3 10 5 15 32 18 56 7
153 -2 169 -15z m-1766 -79 c34 -48 98 -195 124 -285 33 -115 52 -289 34 -329
-12 -30 -13 -29 -20 35 -13 119 -37 198 -77 258 -22 31 -61 93 -89 137 -47 76
-50 85 -56 167 l-6 87 35 -21 c19 -11 43 -33 55 -49z m1388 53 c5 -10 17 -50
27 -90 9 -40 21 -72 26 -72 5 0 7 -4 3 -9 -3 -5 -31 4 -63 20 -31 15 -82 33
-112 39 -111 22 -109 17 -24 59 44 21 85 45 93 54 18 22 38 21 50 -1z m-855
-18 c28 -11 17 -27 -67 -100 -76 -67 -83 -71 -103 -57 l-22 14 27 30 c31 36
129 119 141 119 5 0 15 -3 24 -6z m83 -56 c18 -13 33 -25 33 -28 0 -3 -24 -14
-52 -24 -29 -10 -80 -31 -112 -47 -33 -16 -62 -27 -65 -24 -6 7 140 144 153
145 6 0 25 -10 43 -22z m2234 -59 c217 -107 400 -242 455 -335 59 -100 167
-371 145 -362 -4 2 -29 27 -54 56 -50 56 -73 97 -131 232 -20 47 -46 96 -57
110 -20 25 -20 25 0 -17 12 -23 21 -53 21 -66 0 -12 4 -27 10 -33 12 -12 90
-172 90 -184 0 -4 -19 -1 -42 8 -26 9 -84 16 -150 17 l-106 2 -52 59 c-28 32
-71 87 -95 120 -56 77 -146 242 -136 248 4 3 36 -1 72 -8 35 -8 66 -12 67 -11
5 4 -125 45 -142 45 -17 0 -32 35 -47 109 -6 33 -16 58 -21 55 -5 -3 -9 -52
-8 -107 2 -155 1 -177 -9 -177 -18 0 -31 113 -21 180 15 96 27 120 60 120 15
0 83 -27 151 -61z m-2903 -136 c37 -83 58 -168 72 -289 9 -79 7 -101 -9 -166
-26 -102 -73 -192 -166 -318 -91 -124 -120 -180 -136 -269 -16 -90 0 -185 44
-271 31 -62 32 -67 16 -83 -16 -17 -19 -15 -52 51 -46 93 -64 209 -47 314 13
87 56 172 171 335 44 61 90 135 104 165 51 112 41 304 -25 492 -29 80 -31 106
-11 106 4 0 22 -30 39 -67z m283 39 c14 -6 8 -18 -31 -69 l-47 -62 -12 40
c-11 35 -10 43 9 69 21 30 47 36 81 22z m4 -152 c-52 -77 -55 -79 -61 -53 -3
16 -8 34 -10 42 -2 7 19 45 47 83 l52 70 13 -31 c12 -29 10 -34 -41 -111z
m3668 28 c37 -49 54 -111 71 -259 19 -162 20 -190 4 -212 -11 -14 -13 -4 -15
61 -3 148 -74 365 -145 441 -21 23 -38 44 -38 47 0 14 103 -51 123 -78z
m-3490 35 c-7 -2 -19 -2 -25 0 -7 3 -2 5 12 5 14 0 19 -2 13 -5z m3247 -13
c11 -11 20 -25 20 -31 0 -6 -9 -8 -20 -5 -11 3 -29 9 -40 12 -30 8 -25 44 7
44 7 0 22 -9 33 -20z m-416 -9 c3 -4 32 -16 65 -25 33 -9 108 -39 167 -67 139
-65 203 -127 234 -225 26 -84 26 -120 1 -127 -16 -4 -19 3 -24 50 -7 72 -56
152 -123 203 -48 38 -155 92 -238 121 -40 14 -120 78 -99 79 6 0 14 -4 17 -9z
m-494 -136 c8 0 68 -55 134 -122 l119 -123 -24 -19 c-22 -17 -23 -22 -12 -50
10 -29 10 -30 -8 -21 -24 13 -109 116 -154 186 -39 60 -103 187 -83 164 7 -8
20 -15 28 -15z m-1921 -106 c121 -124 243 -314 286 -447 26 -81 12 -84 -28 -7
-20 39 -53 87 -72 109 -35 37 -38 38 -83 31 -110 -16 -272 -87 -372 -161 -34
-26 -89 -82 -122 -123 -57 -73 -96 -108 -65 -60 8 13 18 35 22 48 7 22 5 23
-21 17 -70 -18 -134 -102 -134 -176 0 -43 10 -69 38 -100 9 -10 23 -26 30 -34
15 -18 83 -22 113 -6 13 8 19 7 19 0 0 -6 -7 -13 -15 -16 -8 -4 -12 -11 -8
-17 3 -6 1 -7 -5 -3 -6 3 -26 -3 -44 -13 -18 -11 -51 -23 -73 -27 -74 -11
-232 43 -309 105 -21 17 -42 28 -47 26 -4 -3 -11 0 -15 6 -5 8 -3 9 7 4 8 -4
4 2 -8 14 -14 13 -20 27 -16 38 4 9 2 14 -3 10 -6 -3 -10 15 -11 46 0 36 2 46
8 32 8 -20 8 -20 8 0 3 69 208 397 308 492 45 42 64 67 60 77 -16 41 -107 -13
-137 -81 -11 -24 -56 -110 -101 -190 -45 -81 -92 -170 -105 -197 -13 -28 -24
-44 -24 -36 1 16 46 103 143 277 32 56 66 121 76 145 21 49 115 130 228 196
122 72 183 89 325 91 l77 1 70 -71z m1711 16 c47 -18 102 -40 122 -49 l37 -16
-23 -62 c-13 -35 -32 -100 -42 -146 -9 -45 -20 -82 -24 -82 -3 0 -48 48 -99
106 -51 58 -96 103 -99 99 -3 -3 12 -24 34 -48 22 -23 62 -67 87 -98 l47 -56
-29 -6 c-45 -9 -109 -72 -118 -115 -4 -21 -7 -39 -6 -42 15 -91 14 -98 -14
-130 l-29 -32 -69 34 c-113 54 -116 53 -177 -42 l-52 -82 -51 7 c-97 12 -135
26 -150 54 -20 40 -68 80 -106 91 -57 17 -93 11 -142 -20 l-46 -29 -73 33
c-74 34 -111 47 -185 66 l-41 10 15 63 c8 34 16 76 19 92 4 28 3 27 -16 -10
-10 -22 -25 -64 -31 -92 -12 -52 -21 -61 -46 -45 -9 6 7 41 58 128 39 65 73
121 75 123 2 2 18 -9 35 -23 48 -41 212 -114 319 -143 184 -50 253 -52 469
-13 63 11 81 28 135 130 49 93 77 191 83 298 7 106 -8 101 133 47z m185 -87
c-4 -18 5 -32 44 -65 39 -33 51 -40 60 -29 8 9 7 16 -2 26 -10 12 -9 12 5 1
16 -12 13 -18 -31 -79 -26 -37 -60 -89 -75 -116 -27 -46 -28 -49 -13 -85 9
-20 19 -50 22 -68 16 -83 -49 -173 -125 -173 -22 0 -44 -6 -49 -12 -6 -7 -45
-81 -86 -165 -42 -83 -82 -156 -89 -162 -19 -16 -110 7 -331 84 l-185 64 -26
-24 c-26 -24 -80 -45 -118 -45 -11 0 -39 9 -63 21 -33 16 -48 31 -65 69 -21
46 -25 49 -71 55 -27 4 -112 4 -188 0 -77 -4 -139 -3 -139 1 0 5 11 49 24 97
l23 89 -28 10 c-41 14 -36 28 9 22 123 -17 282 -67 346 -109 25 -17 27 -16 60
13 44 38 67 46 121 37 53 -7 89 -34 115 -86 11 -21 24 -39 28 -39 7 0 133 -25
179 -35 19 -4 29 7 70 81 47 85 48 85 81 79 19 -3 63 -21 99 -38 l65 -32 34
40 c32 38 34 43 27 90 -4 28 -6 63 -5 80 3 60 71 116 144 119 l41 1 17 80 c23
111 61 225 76 225 2 0 2 -10 -1 -22z m86 -35 c13 -16 12 -17 -3 -4 -10 7 -18
15 -18 17 0 8 8 3 21 -13z m479 -48 c48 -17 139 -97 222 -197 71 -84 87 -115
92 -170 1 -24 7 -52 11 -63 6 -13 0 -9 -17 10 -15 17 -22 32 -17 33 24 9 5 31
-36 41 -36 9 -47 18 -61 46 -20 44 -70 75 -119 75 -31 0 -50 10 -108 56 -91
74 -191 164 -195 175 -6 15 181 10 228 -6z m-114 -147 c61 -60 106 -108 101
-108 -16 0 -136 69 -205 118 -58 40 -63 47 -56 71 4 14 7 34 8 43 0 16 2 16
21 0 11 -9 70 -65 131 -124z m607 -33 c67 -134 69 -116 -37 -247 -75 -92 -90
-97 -102 -33 -3 15 -9 36 -14 46 -6 10 -7 24 -5 32 3 7 -4 39 -15 70 l-21 56
46 42 c26 24 54 48 63 55 9 7 14 15 10 19 -4 4 -34 -16 -67 -45 -51 -44 -63
-51 -76 -40 -12 10 -13 15 -3 28 16 19 151 132 158 132 3 0 31 -52 63 -115z
m-830 27 c29 -26 75 -63 102 -83 51 -37 165 -99 182 -99 5 0 15 -18 22 -39 27
-91 126 -121 196 -60 l35 31 44 -26 c68 -40 138 -130 223 -286 46 -84 163
-351 163 -371 0 -16 -68 92 -116 185 -33 63 -180 245 -235 291 -13 11 -3 -3
22 -30 89 -97 131 -156 145 -202 8 -25 12 -48 10 -51 -3 -2 -8 7 -12 22 -5 22
-8 24 -20 11 -11 -11 -12 -19 -4 -34 5 -11 10 -23 10 -28 0 -4 -29 46 -63 112
-57 110 -115 205 -123 205 -2 0 21 -46 51 -102 29 -57 63 -128 75 -158 21 -52
21 -54 2 -35 -11 11 -18 23 -15 28 2 4 -1 7 -6 7 -6 0 -11 -6 -11 -14 0 -8 -7
-17 -16 -20 -12 -4 -15 -2 -11 9 4 8 -10 3 -34 -14 -23 -17 -47 -27 -58 -24
-13 3 -21 -2 -26 -16 -4 -12 -12 -18 -21 -14 -10 4 -13 0 -8 -13 6 -17 5 -17
-7 -3 -13 15 -15 15 -30 -1 -15 -16 -14 -23 6 -91 12 -41 25 -83 29 -94 4 -11
1 -9 -8 6 -8 14 -27 68 -41 120 -30 106 -85 253 -92 246 -2 -3 9 -49 26 -103
54 -173 91 -388 91 -522 l0 -64 -32 7 c-70 15 -77 50 -18 89 22 14 40 30 40
35 0 9 -58 -1 -78 -13 -6 -3 -17 24 -27 67 -10 39 -21 77 -26 83 -5 6 -24 55
-43 110 -19 54 -38 107 -41 116 -5 13 -2 15 14 11 12 -3 21 -1 21 6 0 6 -11
11 -25 11 -20 0 -28 9 -47 53 -12 28 -41 89 -63 135 -23 45 -38 82 -34 82 3 0
12 14 19 31 10 23 10 39 2 67 -6 20 -14 54 -17 74 -7 47 -48 82 -112 97 -38 9
-53 20 -73 49 -14 20 -46 64 -72 98 l-47 62 46 61 c53 69 52 69 136 -7z m1053
21 c5 -17 3 -28 -4 -31 -7 -2 -12 -8 -12 -13 0 -6 4 -8 9 -5 13 8 21 -20 28
-90 5 -53 2 -67 -16 -96 -31 -48 -71 -91 -79 -84 -12 13 -14 133 -2 157 11 24
11 24 -10 -1 -21 -25 -22 -66 -4 -157 5 -23 2 -32 -11 -37 -10 -3 -20 -4 -22
-2 -3 3 -8 47 -11 98 l-7 93 59 98 c33 53 63 97 67 97 5 0 12 -12 15 -27z
m-2960 -124 c72 -111 78 -133 65 -248 -16 -132 -50 -265 -98 -380 -42 -100
-63 -124 -63 -72 0 30 -24 101 -33 101 -3 0 2 -23 10 -51 8 -27 12 -61 9 -74
-3 -13 -31 -61 -61 -107 l-56 -83 -69 0 c-65 0 -71 -2 -104 -34 -38 -37 -59
-86 -54 -123 2 -19 -7 -29 -58 -55 -68 -36 -171 -66 -210 -61 -24 3 -24 4 -9
26 9 12 39 34 66 47 60 31 90 75 120 175 38 126 59 163 124 217 115 94 171
133 211 142 37 10 36 10 -21 8 -45 -2 -79 -12 -137 -40 -111 -54 -126 -41 -83
73 10 25 20 79 22 120 4 71 3 78 -29 131 l-34 55 17 42 c21 48 17 56 -6 12
-24 -47 -75 -100 -96 -100 -15 0 -19 7 -19 35 0 28 10 45 59 97 32 35 78 73
102 86 24 13 37 18 28 10 -9 -7 -14 -19 -11 -26 2 -7 -6 -25 -19 -40 l-24 -27
28 25 c16 14 43 43 60 64 26 33 27 37 9 27 -12 -6 -22 -10 -22 -7 0 14 193 98
244 106 32 5 61 12 64 15 9 9 35 -19 78 -86z m2383 -5 c30 -21 51 -71 44 -106
-6 -34 -45 -74 -79 -82 -52 -13 -124 47 -124 104 0 28 26 76 47 89 27 16 86
13 112 -5z m-616 -67 l57 -72 -52 -5 c-30 -3 -56 -1 -59 5 -8 13 -17 145 -9
145 3 -1 31 -33 63 -73z m-3273 -69 c-1 -31 -19 -68 -34 -68 -12 0 -6 88 7 93
24 10 27 7 27 -25z m3434 -39 c44 -12 86 -49 86 -78 0 -18 -3 -19 -29 -10 -17
6 -35 17 -41 24 -11 13 -42 13 -109 -1 l-24 -5 29 -30 c15 -16 24 -29 19 -29
-17 0 -71 49 -103 93 l-32 46 27 4 c36 6 127 -1 177 -14z m-158 -105 c42 -54
184 -391 184 -435 0 -24 -20 -5 -35 34 -29 73 -78 177 -82 173 -2 -2 14 -50
37 -107 22 -57 40 -107 40 -110 0 -4 -17 -9 -37 -13 -31 -5 -79 -25 -175 -74
-11 -5 -51 82 -93 198 -34 97 -55 140 -55 114 0 -6 13 -51 29 -100 76 -228 79
-240 64 -259 -12 -18 -14 -17 -43 10 -16 15 -37 51 -46 79 -9 28 -34 97 -56
154 -38 102 -38 104 -24 150 36 115 53 147 82 153 64 13 122 50 140 86 l17 37
15 -30 c8 -16 26 -43 38 -60z m221 -3 c14 -7 13 -11 -6 -30 -11 -11 -27 -21
-35 -21 -40 0 -95 37 -96 64 0 11 115 0 137 -13z m-2687 5 c0 -2 -8 -10 -17
-17 -16 -13 -17 -12 -4 4 13 16 21 21 21 13z m120 -62 c34 -29 60 -73 60 -101
0 -10 -14 -50 -30 -88 l-31 -70 6 61 c8 76 -6 94 -54 70 -39 -21 -70 -20 -93
1 -23 21 -23 35 2 83 37 73 87 88 140 44z m105 -26 c5 4 5 1 1 -5 -4 -7 -3
-21 3 -31 10 -20 -6 -104 -40 -210 -30 -92 -33 -70 -4 27 35 120 41 175 21
205 -19 30 -21 48 -2 24 7 -10 17 -14 21 -10z m2426 -57 c42 -12 48 -17 73
-69 15 -32 35 -89 45 -129 l19 -71 -25 -7 c-14 -3 -26 -5 -27 -3 -1 2 -18 26
-37 53 -34 47 -106 170 -144 244 l-17 34 34 -20 c18 -11 54 -26 79 -32z
m-3910 -164 c25 -119 36 -149 81 -229 28 -51 67 -128 85 -171 l33 -79 -49 36
c-51 38 -70 44 -72 24 -2 -33 -31 64 -69 232 -31 139 -43 211 -45 290 -2 58
-1 89 2 70 2 -19 18 -97 34 -173z m4864 131 c33 -12 66 -25 72 -31 15 -11 117
-187 112 -192 -2 -1 -26 35 -54 81 -47 79 -71 106 -59 67 5 -17 5 -17 -6 0 -6
9 -15 15 -20 12 -5 -3 -12 0 -16 6 -5 8 -3 9 6 4 8 -5 11 -4 7 3 -10 15 -47 3
-40 -14 3 -8 10 -11 16 -7 6 3 7 1 3 -5 -4 -6 10 -35 32 -64 45 -62 55 -78 48
-78 -2 0 -25 30 -51 66 -26 36 -70 93 -98 126 -31 38 -43 58 -31 54 10 -5 46
-17 79 -28z m-2423 -23 c30 -49 98 -103 141 -112 33 -7 32 -5 5 -62 -15 -31
-23 -70 -26 -126 -4 -70 -1 -89 19 -131 34 -71 34 -71 12 -44 -11 14 -26 43
-34 65 -7 22 -22 48 -34 58 -11 10 -14 16 -7 12 21 -11 35 6 15 20 -10 7 -15
17 -10 21 4 4 7 2 7 -4 0 -7 5 -12 12 -12 6 0 3 8 -7 20 -10 11 -22 17 -26 14
-5 -3 -9 9 -9 25 0 23 -5 31 -17 31 -23 0 -75 34 -66 43 3 4 -1 7 -10 7 -11 0
-17 -8 -17 -22 0 -36 -11 -68 -21 -62 -5 3 -10 -34 -10 -83 -2 -79 -3 -74 -10
51 -6 100 -5 143 3 153 6 7 8 16 4 20 -3 3 -6 1 -6 -5 0 -9 -6 -9 -22 0 -13 7
-25 16 -28 20 -3 4 -23 10 -43 12 -21 3 -42 8 -48 11 -6 4 -8 -2 -4 -17 5 -18
2 -25 -9 -25 -18 0 -19 8 -10 95 8 71 3 69 139 71 l90 1 27 -45z m-335 -52
c-4 -38 -7 -90 -7 -117 0 -27 -3 -46 -6 -43 -4 3 -6 38 -6 77 0 47 -3 70 -11
70 -7 0 -6 4 3 10 11 7 6 10 -20 10 -27 0 -31 -3 -20 -10 13 -9 13 -12 -1 -20
-11 -6 -19 -31 -24 -72 -4 -35 -9 -58 -11 -53 -2 6 2 53 9 105 12 87 14 95 37
101 62 17 63 15 57 -58z m657 18 c3 -4 31 -16 63 -25 32 -9 92 -29 133 -45 85
-34 79 -22 110 -201 39 -231 51 -472 29 -613 -16 -107 -28 -116 -29 -21 0 74
-13 238 -41 504 -5 58 -15 109 -20 115 -5 5 -9 7 -9 4 0 -3 7 -86 15 -184 12
-130 14 -231 9 -362 -5 -130 -4 -183 4 -183 32 0 63 26 71 59 24 92 33 199 29
323 -3 78 -1 121 3 103 15 -52 39 -287 39 -373 0 -60 3 -81 11 -76 17 10 4
264 -20 394 -11 58 -37 187 -59 288 -21 100 -37 182 -35 182 2 0 21 -9 42 -19
l37 -20 33 -163 c49 -250 59 -486 26 -623 -6 -23 -5 -27 4 -19 17 16 29 73 37
174 8 102 -14 304 -57 534 -16 87 -28 160 -26 162 2 3 27 -1 56 -8 56 -13 54
-8 35 -75 -5 -18 3 -28 50 -58 l56 -36 0 -53 c0 -62 30 -188 59 -245 29 -56
81 -93 140 -99 l49 -4 11 -87 c6 -48 11 -109 11 -135 0 -29 4 -45 10 -41 13 8
13 92 -1 192 l-11 80 32 34 32 34 -5 -120 c-3 -66 -8 -131 -12 -145 -6 -23 -4
-22 12 5 14 24 17 53 18 150 0 66 -3 140 -8 165 l-8 45 32 -65 c25 -54 29 -68
19 -84 -10 -16 -9 -18 4 -13 11 5 22 -5 36 -34 l21 -40 -21 -33 c-26 -42 -26
-54 0 -31 19 17 18 13 -5 -39 -14 -31 -25 -62 -24 -69 0 -9 2 -9 6 1 11 28 20
9 15 -33 -6 -59 13 -154 45 -221 24 -51 82 -114 104 -114 6 0 -4 12 -21 26
-40 35 -67 88 -76 153 l-7 53 58 58 c51 51 61 58 78 48 12 -6 37 -12 58 -13
67 -5 79 -18 79 -86 0 -43 3 -58 11 -53 8 5 10 37 6 108 -6 107 -32 199 -68
249 -11 16 -19 30 -17 32 13 12 86 35 112 34 l31 -1 -32 -14 c-47 -20 -47 -30
0 -48 61 -23 108 -60 124 -97 7 -17 16 -64 19 -103 3 -39 8 -78 11 -86 9 -28
34 53 40 127 3 40 11 77 18 83 8 7 10 -44 7 -213 l-4 -222 32 -78 c103 -256
74 -454 -98 -683 -104 -137 -345 -356 -493 -446 -74 -45 -123 -52 -335 -44
-188 7 -387 35 -551 76 -98 24 -122 34 -140 57 l-23 28 63 7 c112 12 188 48
246 113 45 52 38 59 -19 21 -28 -19 -76 -41 -108 -51 -102 -30 -112 -36 -57
-30 28 3 77 18 110 35 44 22 53 25 35 9 -71 -59 -187 -85 -309 -70 -70 9 -198
47 -189 57 2 2 26 -5 54 -15 71 -27 150 -36 157 -19 3 9 -3 14 -16 16 -12 0
-23 6 -25 12 -2 5 -8 8 -13 4 -5 -3 -12 2 -15 11 -4 9 -19 22 -35 31 -16 8
-29 21 -29 30 0 9 -5 13 -12 9 -7 -4 -5 0 5 8 12 10 14 17 8 22 -6 3 -11 0
-11 -7 0 -13 -75 68 -80 87 -2 6 -29 29 -61 53 -33 23 -59 44 -59 47 0 2 37
-20 83 -49 109 -71 161 -96 292 -141 85 -29 126 -38 180 -38 78 -1 155 26 174
61 18 34 13 35 -23 4 -67 -58 -183 -63 -316 -13 -102 38 -143 73 -233 193
-113 150 -266 428 -236 428 6 0 36 -23 67 -50 31 -28 62 -48 68 -46 6 2 22 -3
35 -11 14 -9 7 2 -15 25 -22 23 -42 39 -46 37 -4 -2 -6 6 -5 18 3 35 -13 57
-43 57 l-27 1 28 15 c19 10 27 22 27 42 0 15 5 45 12 67 l11 40 13 -66 c23
-121 82 -204 179 -253 30 -16 58 -26 61 -24 3 3 -13 12 -34 21 -51 20 -132
110 -132 146 0 46 61 120 125 153 47 25 150 29 208 9 37 -12 37 -13 37 -67 0
-34 4 -54 11 -54 18 0 4 135 -20 200 -11 30 -42 79 -68 109 l-47 54 89 -6 c50
-3 104 -10 120 -16 l30 -11 -27 23 c-33 27 -35 37 -9 37 39 0 29 17 -20 34
-34 13 -49 23 -49 36 0 10 -3 26 -7 35 -5 16 1 17 60 13 37 -2 67 -1 67 3 0 8
-53 19 -95 19 -32 0 -33 1 -44 63 -25 141 -35 251 -23 255 7 2 12 8 12 13 0 6
-4 8 -9 4 -15 -9 -22 47 -25 185 -2 103 -6 134 -24 174 -12 27 -22 60 -22 75
0 14 -6 52 -14 84 -12 50 -8 74 8 48z m-46 -47 c2 -21 6 -42 9 -48 3 -6 -13 7
-35 29 -23 22 -41 42 -42 45 0 3 15 7 33 8 31 2 33 1 35 -34z m-1753 -96 c24
-51 46 -104 49 -118 7 -27 2 -18 -65 128 -21 45 -36 82 -33 82 3 0 25 -42 49
-92z m1737 35 c59 -78 78 -118 85 -172 5 -45 3 -55 -17 -76 -31 -33 -88 -34
-118 -2 -32 35 -46 105 -33 169 19 88 31 128 39 128 4 0 24 -21 44 -47z m-426
28 c-4 -5 -1 -11 6 -13 7 -3 9 -11 3 -24 -7 -17 -8 -17 -12 -1 -3 9 -13 17
-23 17 -10 0 -22 4 -25 10 -3 5 0 7 8 4 8 -3 18 -1 22 5 3 6 11 11 16 11 6 0
8 -4 5 -9z m1214 -195 c0 -5 -14 12 -32 38 -17 26 -37 50 -45 53 -7 3 -13 18
-13 33 0 16 -4 31 -9 34 -5 3 -6 16 -3 29 5 18 15 3 54 -78 26 -55 48 -104 48
-109z m-2210 181 c0 -2 -19 -21 -42 -42 l-43 -40 40 43 c36 39 45 47 45 39z
m1039 -79 l-2 -83 -6 60 c-6 56 -4 105 5 105 2 0 3 -37 3 -82z m-137 35 c-5
-26 -4 -27 12 -10 37 36 66 13 66 -53 0 -25 -6 -54 -13 -64 -17 -24 -48 -17
-63 13 -11 21 -13 22 -17 5 -3 -11 -5 1 -5 26 0 35 1 40 9 25 6 -13 7 0 3 39
-4 38 -3 57 3 53 6 -4 8 -19 5 -34z m1170 21 c27 -14 30 -19 25 -51 -8 -50
-20 -58 -56 -43 -47 19 -55 33 -41 75 13 39 26 43 72 19z m-1972 -72 c10 -64
10 -72 -16 -142 -53 -143 -112 -221 -219 -291 -62 -41 -63 -43 -48 -66 14 -21
23 -23 91 -23 72 0 96 5 185 36 l38 13 -6 -32 c-4 -18 -31 -84 -60 -147 -41
-88 -64 -158 -99 -300 -57 -232 -86 -323 -139 -430 -49 -101 -106 -162 -200
-214 -90 -51 -136 -63 -304 -85 -130 -16 -154 -17 -270 -4 -142 16 -318 11
-460 -12 -48 -8 -88 -13 -90 -12 -1 2 59 66 135 142 262 267 402 420 407 445
5 24 5 25 -6 3 -20 -39 -82 -74 -141 -80 -49 -5 -64 -1 -149 37 -175 79 -350
129 -527 152 -14 2 53 31 165 71 103 38 197 72 208 77 12 4 50 30 85 56 36 27
96 71 134 98 l69 49 67 -36 c36 -20 75 -36 86 -36 10 1 44 -7 74 -16 33 -10
108 -19 186 -22 l132 -6 45 42 c25 24 60 65 77 92 35 54 125 260 144 328 12
43 13 45 72 61 125 34 224 113 279 223 19 38 35 76 35 83 0 34 9 8 20 -54z
m2560 28 c11 -22 16 -40 10 -40 -8 0 -40 61 -40 76 0 13 12 -2 30 -36z m-3122
-25 c53 -14 110 -31 126 -37 l29 -12 -6 -105 c-6 -101 -20 -177 -36 -194 -7
-7 -249 58 -263 72 -11 10 23 285 36 293 14 10 2 12 114 -17z m1179 -42 c-3
-10 -5 -2 -5 17 0 19 2 27 5 18 2 -10 2 -26 0 -35z m446 33 c21 -16 22 -32 3
-39 -16 -6 -40 16 -29 26 3 4 1 7 -5 7 -7 0 -12 5 -12 10 0 14 22 12 43 -4z
m-356 -163 c-2 -32 -3 -6 -3 57 0 63 1 89 3 58 2 -32 2 -84 0 -115z m1328 129
l20 -24 -27 12 c-16 8 -24 18 -21 27 3 7 6 13 7 11 1 -2 10 -14 21 -26z m653
-31 c11 -46 11 -46 -31 11 -24 32 -25 37 -9 41 23 5 27 -1 40 -52z m1021 4 c0
-5 -6 1 -14 15 -8 14 -14 30 -14 35 0 6 6 -1 14 -15 8 -14 14 -29 14 -35z
m-1009 -123 c106 -156 134 -204 124 -215 -2 -2 -35 4 -72 14 -81 23 -96 24
-88 4 3 -8 2 -15 -3 -15 -4 0 -18 52 -30 116 -13 64 -33 147 -46 185 -21 64
-22 83 -4 77 5 -2 58 -76 119 -166z m-2950 143 c-7 -9 -27 -25 -44 -37 -23
-15 -21 -11 9 16 43 38 55 45 35 21z m2820 -85 c33 -123 59 -244 55 -249 -6
-5 -8 3 -39 119 -14 52 -34 121 -46 154 -11 32 -17 63 -14 68 11 17 21 -4 44
-92z m1080 70 c6 -11 8 -20 6 -20 -3 0 -10 9 -16 20 -6 11 -8 20 -6 20 3 0 10
-9 16 -20z m-2613 -12 c2 -24 -14 -23 -27 1 -8 16 -7 20 8 18 10 0 19 -9 19
-19z m1491 -58 c13 -41 34 -114 47 -162 23 -85 23 -87 4 -93 -10 -4 -32 -17
-48 -30 l-28 -24 -45 52 c-59 70 -120 152 -152 208 l-26 45 42 24 c48 27 146
60 168 57 8 -1 24 -32 38 -77z m-455 39 c82 -42 198 -158 215 -216 15 -51 5
-80 -39 -117 -28 -24 -39 -27 -72 -22 -65 11 -93 32 -121 88 -40 83 -81 298
-56 298 6 0 39 -14 73 -31z m-2193 8 c0 -2 -10 -12 -22 -23 l-23 -19 19 23
c18 21 26 27 26 19z m1043 -508 c-5 -5 -6 110 -3 254 l5 262 3 -254 c1 -140
-1 -258 -5 -262z m-2302 411 l17 -61 -25 -10 c-37 -14 -52 -11 -78 16 -40 39
-30 95 20 122 31 17 47 0 66 -67z m2156 43 c-3 -10 -5 -4 -5 12 0 17 2 24 5
18 2 -7 2 -21 0 -30z m-1137 23 c0 -3 -4 -8 -10 -11 -5 -3 -10 -1 -10 4 0 6 5
11 10 11 6 0 10 -2 10 -4z m386 -43 c-8 -22 -23 -58 -35 -80 -11 -22 -18 -43
-16 -47 3 -3 2 -4 -1 -1 -4 2 -19 -15 -34 -38 -15 -23 -40 -53 -55 -67 -15
-14 -2 9 29 50 31 41 71 110 88 152 33 81 49 101 24 31z m1071 41 c-3 -3 -12
-4 -19 -1 -8 3 -5 6 6 6 11 1 17 -2 13 -5z m1170 -110 c-9 -9 -38 47 -31 58 5
8 13 0 21 -21 8 -18 12 -35 10 -37z m-3144 -5 c62 -23 116 -46 121 -50 10 -9
-7 -172 -26 -246 -9 -37 -13 -42 -24 -31 -10 11 -9 32 3 116 9 63 12 107 6
113 -6 6 -14 -31 -22 -94 l-13 -104 -84 36 -85 36 1 85 c2 121 1 130 -10 130
-6 0 -10 -43 -10 -109 0 -112 -5 -145 -21 -135 -12 7 -11 73 2 194 10 88 14
100 31 100 10 0 69 -19 131 -41z m2223 -75 c15 -46 24 -87 21 -90 -3 -3 -24
-8 -46 -11 l-41 -6 0 107 c0 103 1 106 20 96 13 -7 29 -40 46 -96z m-997 56
c36 -36 47 -85 32 -133 -34 -102 -165 -116 -221 -24 -24 39 -25 68 -3 114 21
45 67 73 120 73 33 0 48 -6 72 -30z m2660 -20 c0 -9 -4 -8 -9 5 -5 11 -9 27
-9 35 0 9 4 8 9 -5 5 -11 9 -27 9 -35z m-1749 -80 c0 -52 -4 -69 -16 -74 -8
-3 -13 -2 -10 3 4 5 7 41 7 80 1 39 5 68 10 65 5 -3 9 -36 9 -74z m1777 58
c-3 -8 -6 -5 -6 6 -1 11 2 17 5 13 3 -3 4 -12 1 -19z m730 0 c-3 -8 -6 -5 -6
6 -1 11 2 17 5 13 3 -3 4 -12 1 -19z m-750 -20 c-3 -8 -6 -5 -6 6 -1 11 2 17
5 13 3 -3 4 -12 1 -19z m-2030 -70 c-2 -18 -4 -6 -4 27 0 33 2 48 4 33 2 -15
2 -42 0 -60z m230 35 c-3 -10 -5 -4 -5 12 0 17 2 24 5 18 2 -7 2 -21 0 -30z
m1830 5 c-3 -8 -6 -5 -6 6 -1 11 2 17 5 13 3 -3 4 -12 1 -19z m-4213 -57 c52
-39 97 -78 100 -88 7 -21 -8 -201 -18 -210 -3 -3 -14 1 -24 10 -10 10 -23 17
-28 18 -5 0 -34 17 -64 37 l-55 38 -12 94 c-6 52 -10 97 -7 99 7 8 51 -20 100
-63 l47 -42 -1 -77 c-1 -90 13 -103 21 -20 8 74 0 106 -28 124 -89 54 -175
149 -135 149 6 0 53 -31 104 -69z m4193 47 c-3 -8 -6 -5 -6 6 -1 11 2 17 5 13
3 -3 4 -12 1 -19z m-2270 -35 c-3 -10 -5 -4 -5 12 0 17 2 24 5 18 2 -7 2 -21
0 -30z m2330 15 c-3 -8 -6 -5 -6 6 -1 11 2 17 5 13 3 -3 4 -12 1 -19z m-37
-19 c4 7 10 -19 14 -59 9 -89 2 -101 -14 -23 -14 68 -19 104 -13 84 4 -11 7
-11 13 -2z m-1840 -29 c0 -11 -7 -20 -15 -20 -8 0 -57 -22 -110 -49 l-95 -49
1 37 c2 29 3 31 6 9 l4 -27 99 47 c54 26 99 53 99 60 1 20 11 13 11 -8z m1887
-12 c-3 -7 -5 -2 -5 12 0 14 2 19 5 13 2 -7 2 -19 0 -25z m-1713 5 c23 -77 56
-222 58 -256 2 -23 6 -44 9 -47 3 -3 9 -17 13 -32 6 -28 6 -28 -47 -28 -30 0
-76 -3 -102 -7 l-48 -6 7 104 c4 57 9 140 11 184 l4 80 33 12 c46 16 56 16 62
-4z m-125 -85 c0 -35 -4 -112 -8 -171 -7 -88 -12 -111 -27 -122 -11 -8 -21
-15 -24 -15 -7 0 4 134 21 273 9 68 16 97 26 97 9 0 13 -17 12 -62z m2169 -7
c13 -39 26 -93 29 -120 3 -28 10 -51 15 -51 5 0 23 13 39 29 24 25 29 37 29
80 0 28 3 51 8 51 4 0 43 -60 87 -132 44 -72 88 -142 98 -154 10 -13 84 -67
165 -120 81 -54 166 -112 190 -130 l43 -32 -158 5 c-174 5 -202 12 -383 86
l-105 43 -28 75 c-16 41 -32 85 -37 99 -5 14 -31 83 -59 155 -28 71 -48 131
-46 134 8 7 80 50 86 51 3 0 15 -31 27 -69z m-2226 14 l-6 -40 -6 34 -5 33
-100 -51 c-55 -28 -91 -43 -80 -35 19 15 198 105 201 101 1 -1 -1 -20 -4 -42z
m1905 3 c-3 -7 -5 -2 -5 12 0 14 2 19 5 13 2 -7 2 -19 0 -25z m-2400 -75 c-2
-21 -4 -6 -4 32 0 39 2 55 4 38 2 -18 2 -50 0 -70z m478 -35 c-3 -29 -13 -90
-21 -136 -14 -78 -19 -87 -65 -135 -45 -48 -49 -50 -49 -27 0 14 -3 36 -5 50
l-6 25 12 -25 c7 -14 11 -29 10 -34 -4 -18 31 19 40 42 5 13 13 20 19 17 5 -3
10 -3 11 2 0 4 2 16 4 26 2 9 -1 15 -6 11 -5 -3 -6 -10 -3 -16 4 -7 2 -8 -4
-4 -8 5 -8 13 0 31 6 13 14 23 17 20 4 -2 7 4 8 13 2 30 37 192 41 192 2 0 1
-24 -3 -52z m-558 -15 c-3 -10 -5 -2 -5 17 0 19 2 27 5 18 2 -10 2 -26 0 -35z
m-40 -20 c-3 -10 -5 -4 -5 12 0 17 2 24 5 18 2 -7 2 -21 0 -30z m420 0 c-3
-10 -5 -4 -5 12 0 17 2 24 5 18 2 -7 2 -21 0 -30z m-1952 -61 c-6 -6 -105 31
-105 38 0 19 18 17 61 -7 26 -15 46 -29 44 -31z m1962 6 c-3 -8 -6 -5 -6 6 -1
11 2 17 5 13 3 -3 4 -12 1 -19z m-400 -10 c-3 -8 -6 -5 -6 6 -1 11 2 17 5 13
3 -3 4 -12 1 -19z m2586 -12 c-10 -13 -20 -22 -22 -20 -4 4 29 44 36 44 2 0
-4 -11 -14 -24z m-2230 -179 l14 -89 -24 -9 c-43 -16 -46 -12 -39 44 4 28 10
90 13 137 8 95 7 95 36 -83z m2256 68 c0 -5 -8 6 -19 25 -11 19 -19 40 -19 45
0 6 8 -6 19 -25 11 -19 19 -39 19 -45z m-2192 23 c-3 -7 -5 -2 -5 12 0 14 2
19 5 13 2 -7 2 -19 0 -25z m2152 -55 c30 -48 54 -95 54 -105 -1 -10 4 -17 10
-15 7 1 11 -4 10 -10 -2 -7 1 -13 5 -13 5 0 14 -12 21 -27 15 -34 12 -31 -84
87 -43 52 -84 102 -90 110 -13 15 -4 60 12 60 4 0 33 -39 62 -87z m-2282 20
c-3 -10 -5 -4 -5 12 0 17 2 24 5 18 2 -7 2 -21 0 -30z m-10 -70 c-3 -10 -5 -4
-5 12 0 17 2 24 5 18 2 -7 2 -21 0 -30z m-160 -55 c-3 -8 -6 -5 -6 6 -1 11 2
17 5 13 3 -3 4 -12 1 -19z m150 -10 c-3 -7 -5 -2 -5 12 0 14 2 19 5 13 2 -7 2
-19 0 -25z m2760 -64 l145 -56 166 -9 c92 -5 181 -12 197 -15 73 -15 242 -120
266 -166 13 -24 -1 -42 -55 -71 -36 -19 -56 -22 -161 -21 -103 0 -132 4 -200
27 -202 67 -473 249 -504 337 -5 17 -8 30 -5 30 3 0 71 -25 151 -56z m-2777
-4 c8 -5 12 -11 10 -14 -3 -2 -14 2 -24 10 -22 15 -10 19 14 4z m55 -30 c-3
-11 -9 -32 -11 -47 -7 -38 -14 -42 -14 -7 0 40 10 74 22 74 5 0 7 -9 3 -20z
m-60 -55 c-4 -25 -9 -44 -12 -41 -2 2 -1 25 2 51 4 25 9 44 12 41 2 -2 1 -25
-2 -51z m-21 -94 c-4 -17 -9 -30 -11 -27 -3 2 -2 19 2 36 9 41 17 33 9 -9z
m2636 28 c0 -6 6 -9 14 -6 9 4 22 -7 35 -29 28 -47 26 -55 -5 -19 l-26 30 6
-30 c4 -16 9 -39 12 -50 4 -15 -1 -13 -21 10 -35 40 -57 83 -50 95 8 14 35 13
35 -1z m-2590 -136 c30 -66 96 -262 86 -256 -30 18 -146 128 -175 165 l-33 43
44 -47 c51 -55 139 -131 144 -125 5 5 -58 183 -75 216 -7 13 -18 18 -33 15
-21 -4 -22 -4 -3 5 29 14 31 14 45 -16z m-73 1 c-3 -3 -12 -4 -19 -1 -8 3 -5
6 6 6 11 1 17 -2 13 -5z m3667 -50 c21 -56 -22 -180 -94 -266 -32 -38 -123
-110 -235 -185 l-61 -41 -49 91 c-28 50 -69 119 -92 155 -24 36 -43 66 -43 68
0 1 15 2 33 2 17 0 64 -1 102 -1 39 0 104 0 145 -1 63 -1 84 4 132 27 65 32
126 94 135 137 6 33 18 39 27 14z m-3723 -51 c13 -16 12 -17 -3 -4 -17 13 -22
21 -14 21 2 0 10 -8 17 -17z m34 -43 c10 -11 16 -20 13 -20 -3 0 -13 9 -23 20
-10 11 -16 20 -13 20 3 0 13 -9 23 -20z m270 -259 c44 -35 82 -66 85 -69 12
-14 -59 35 -114 77 -32 25 -70 53 -83 61 -14 8 -24 18 -22 22 2 4 -23 36 -56
70 -45 47 -38 42 25 -18 47 -44 121 -109 165 -143z m2030 159 c10 -11 16 -20
13 -20 -3 0 -13 9 -23 20 -10 11 -16 20 -13 20 3 0 13 -9 23 -20z m-2182 -75
c21 -25 34 -45 28 -45 -19 0 -71 52 -71 71 0 10 1 19 3 19 1 0 20 -20 40 -45z
m-43 -16 c7 -11 9 -23 6 -26 -8 -9 -47 28 -40 38 9 15 23 10 34 -12z m111 -56
c13 -16 12 -17 -3 -4 -17 13 -22 21 -14 21 2 0 10 -8 17 -17z m2427 -162 l92
-99 -47 -31 c-25 -17 -52 -31 -58 -31 -6 0 -26 42 -43 93 -40 117 -52 167 -43
167 4 0 49 -45 99 -99z m-127 -151 c42 -172 59 -391 38 -505 -16 -87 -41 -131
-80 -139 -57 -11 -70 -6 -114 42 l-43 47 -43 -21 c-33 -16 -50 -19 -68 -12
-24 8 -23 9 21 37 132 84 211 270 253 594 4 27 8 47 11 45 2 -3 13 -42 25 -88z
m-2201 34 c0 -2 -9 0 -20 6 -11 6 -20 13 -20 16 0 2 9 0 20 -6 11 -6 20 -13
20 -16z m1642 -37 l-32 -32 21 -35 c12 -19 33 -47 47 -62 14 -16 22 -28 18
-28 -4 0 4 -15 18 -33 15 -19 26 -39 26 -45 0 -7 4 -12 9 -12 5 0 14 -13 21
-29 10 -26 9 -34 -14 -70 -15 -23 -22 -41 -16 -41 5 0 10 -5 10 -10 0 -6 12
-29 27 -51 27 -41 27 -42 7 -58 -22 -18 -29 -61 -10 -61 6 0 18 6 25 13 6 6
16 12 21 12 5 0 21 15 35 34 22 30 31 29 26 -2 -1 -5 9 -6 21 -2 l23 6 -23
-18 c-50 -40 -206 -78 -281 -68 -67 9 -71 13 -61 65 14 70 11 161 -6 219 -15
50 -64 117 -77 105 -3 -4 3 -14 15 -23 19 -16 20 -21 9 -69 -20 -96 -70 -170
-165 -248 l-55 -46 -120 4 c-66 1 -122 6 -125 9 -3 3 -9 47 -12 97 -6 81 -10
93 -30 107 -19 12 -24 24 -24 58 l0 42 138 1 c83 1 154 6 178 14 34 12 98 55
214 146 l35 27 -32 -34 c-36 -38 -41 -52 -18 -43 11 5 14 1 9 -12 -9 -30 31
23 62 81 15 28 45 67 68 87 51 46 60 49 18 5z m952 -143 c85 -105 99 -134 135
-276 33 -126 43 -235 21 -230 -26 6 -102 77 -124 116 -50 88 -53 179 -10 283
8 19 11 32 5 29 -15 -10 -51 -113 -51 -146 0 -17 -4 -30 -9 -30 -12 0 -101
100 -112 125 -4 11 -30 56 -56 100 l-49 80 75 16 c42 9 83 17 91 17 8 1 46
-37 84 -84z m-4126 -61 c0 -126 15 -237 38 -298 7 -18 4 -17 -27 6 -71 54
-115 193 -90 284 10 36 66 145 75 145 2 0 3 -62 4 -137z m-218 -88 c11 -29 11
-29 -10 -10 -11 10 -29 33 -40 50 -20 32 -20 32 2 96 l23 64 6 -85 c4 -47 12
-98 19 -115z m2212 101 c51 -13 132 -29 178 -36 126 -17 124 -16 183 -70 36
-33 64 -50 81 -50 24 0 26 4 26 40 0 22 3 40 8 40 4 0 6 -19 4 -43 l-4 -43
-101 -12 c-56 -7 -146 -23 -200 -36 l-98 -23 -43 51 c-54 64 -142 180 -157
207 -9 18 -9 19 9 10 11 -6 62 -21 114 -35z m2737 22 c110 -66 281 -181 281
-188 0 -5 -9 -11 -20 -15 -10 -3 -63 -38 -116 -76 -53 -39 -100 -67 -104 -62
-4 4 -13 44 -20 87 -7 44 -24 124 -40 178 -15 54 -25 98 -22 98 2 0 21 -10 41
-22z m-759 -127 c0 -5 31 -49 69 -98 39 -49 73 -103 77 -119 4 -17 37 -59 80
-101 l73 -72 -44 -21 c-68 -33 -163 -44 -229 -27 -66 16 -65 5 1 -17 67 -23
140 -29 193 -17 24 5 46 8 48 6 2 -2 -13 -21 -33 -44 -50 -55 -108 -81 -179
-81 -90 0 -141 37 -176 126 l-19 49 -1 -72 c0 -79 0 -80 -61 -63 -29 8 -44 22
-73 69 -20 33 -36 62 -36 65 0 3 33 21 73 39 80 37 136 86 167 147 24 47 50
151 50 203 0 20 5 37 10 37 6 0 10 -4 10 -9z m-1450 -110 c5 -11 10 -35 10
-53 l0 -34 -81 -2 c-44 -1 -115 -11 -157 -21 -42 -11 -78 -19 -80 -17 -2 2
-12 27 -22 55 l-20 51 24 6 c54 13 195 32 253 33 52 1 64 -2 73 -18z m-410
-41 c0 -5 -2 -10 -4 -10 -3 0 -8 5 -11 10 -3 6 -1 10 4 10 6 0 11 -4 11 -10z
m437 -127 c6 -38 14 -76 18 -87 8 -17 3 -18 -63 -14 -49 2 -76 9 -90 21 -19
17 -19 20 -4 67 9 27 12 53 8 57 -9 9 -21 -10 -43 -67 -9 -25 -18 -46 -19 -48
-4 -6 -67 29 -103 56 -25 18 -30 27 -20 32 19 10 154 39 204 43 109 10 99 15
112 -60z m-2852 10 l42 -26 6 -126 c4 -69 7 -160 7 -201 l0 -75 -93 -52 c-89
-50 -147 -77 -153 -71 -1 2 11 48 27 103 35 115 109 425 109 455 0 26 5 25 55
-7z m3960 -180 c78 -130 204 -297 263 -347 26 -23 81 -63 122 -91 51 -34 89
-71 126 -120 89 -119 140 -160 217 -173 39 -7 42 -10 45 -41 4 -40 -21 -112
-46 -134 -11 -9 -47 -16 -103 -20 -71 -4 -97 -10 -160 -40 -81 -40 -147 -58
-182 -50 -76 16 -144 44 -232 94 -118 67 -138 73 -313 99 -129 19 -219 47
-243 76 -9 11 -8 19 6 34 23 26 51 30 201 34 92 2 143 8 177 21 47 17 49 19
43 48 -4 18 -30 55 -64 91 -68 71 -174 212 -204 270 -12 23 -27 64 -34 91 -16
57 -18 171 -5 179 12 8 67 -57 111 -131 19 -32 55 -84 80 -116 25 -32 57 -74
73 -94 29 -39 36 -37 12 5 -32 59 -84 202 -95 262 -6 35 -8 86 -5 114 13 91
41 117 48 44 3 -42 4 -42 5 9 1 30 7 53 15 56 19 8 79 -63 142 -170z m-271
136 c46 -20 47 -21 40 -57 -4 -20 -8 -38 -9 -40 -2 -2 -43 17 -91 42 -49 25
-87 46 -84 46 23 6 95 28 96 29 1 0 22 -8 48 -20z m-3568 -12 c22 -8 75 -20
119 -26 55 -9 90 -21 112 -37 l32 -24 -25 -38 c-15 -22 -24 -46 -21 -59 4 -20
-11 -32 -118 -93 -67 -39 -125 -70 -127 -70 -3 0 -8 74 -12 165 -4 91 -9 172
-13 180 -6 18 4 19 53 2z m2904 0 c17 -2 2 -10 -49 -26 -76 -25 -90 -22 -91
19 0 14 45 17 140 7z m470 -9 c19 -6 81 -35 138 -65 99 -52 102 -55 102 -88 0
-19 11 -62 24 -97 13 -35 26 -72 30 -83 13 -35 -42 36 -76 97 -17 32 -55 84
-84 115 -52 56 -54 57 -69 39 -8 -11 -15 -40 -15 -66 0 -64 35 -194 62 -232
l22 -31 -30 6 c-57 13 -177 47 -182 52 -3 3 14 5 38 5 86 0 106 56 40 113 -71
61 -195 78 -246 34 -26 -23 -26 -24 -10 -55 9 -18 32 -40 51 -49 19 -9 35 -20
35 -25 0 -11 1 -12 -77 27 -39 19 -76 35 -82 35 -22 0 -9 16 40 50 58 41 128
129 155 195 19 46 19 46 59 40 22 -4 56 -11 75 -17z m-1866 -157 c29 -11 69
-22 88 -26 20 -4 46 -17 58 -30 l21 -22 -33 -7 c-18 -3 -57 -18 -86 -32 l-54
-26 -28 27 c-39 37 -99 136 -107 176 l-6 32 47 -36 c27 -20 72 -45 100 -56z
m-1161 48 c47 -13 106 -63 124 -106 12 -29 11 -36 -3 -58 -20 -31 -29 -31 -50
0 -21 33 -99 83 -140 91 -39 7 -42 21 -13 58 23 29 28 30 82 15z m581 -80 l41
-1 -34 -14 c-36 -16 -120 -20 -195 -9 -50 8 -63 25 -18 25 15 1 41 7 57 14 25
11 37 11 69 -1 21 -7 57 -13 80 -14z m1106 -10 c12 -8 9 -9 -12 -5 -16 4 -28
2 -28 -4 0 -5 10 -10 23 -11 12 0 54 -11 92 -24 l70 -25 -55 6 c-60 5 -150 31
-150 43 0 11 23 31 35 31 5 0 17 -5 25 -11z m1285 -18 c22 -10 48 -27 58 -39
24 -26 19 -66 -8 -70 -15 -2 -16 -1 -7 6 17 12 -6 22 -49 22 -34 0 -39 -17 -6
-23 14 -3 9 -5 -14 -6 -45 -1 -52 6 -34 33 8 11 15 30 15 41 0 14 -5 11 -19
-15 -20 -38 -48 -51 -57 -26 -3 9 -12 16 -20 16 -18 0 -54 36 -54 54 0 18 20
23 95 25 39 0 74 -6 100 -18z m-2078 -41 c9 -16 20 -30 24 -30 3 0 11 -12 18
-27 11 -23 10 -29 -6 -41 -31 -24 -81 -42 -116 -42 -42 0 -147 21 -147 29 1 3
23 17 50 30 26 13 70 43 97 67 26 24 51 43 55 44 4 0 15 -13 25 -30z m2770 5
c7 -2 22 -23 34 -47 25 -51 82 -113 124 -136 31 -16 132 -21 173 -8 20 7 22 4
22 -26 0 -18 7 -46 15 -62 8 -15 15 -30 15 -32 0 -2 -75 35 -168 81 -167 85
-167 85 -225 159 -31 41 -57 77 -57 80 0 6 34 1 67 -9z m-3434 -20 c72 -41
200 -84 295 -100 48 -8 116 -24 150 -35 136 -43 224 -36 260 21 l19 30 36 -61
37 -61 -29 -62 c-30 -67 -94 -138 -156 -175 l-39 -24 -86 26 c-115 34 -183 45
-325 53 -131 6 -159 -1 -244 -65 -33 -24 -34 -24 -63 -8 -16 10 -35 15 -42 13
-8 -3 -28 -31 -46 -62 -53 -92 -50 -76 30 180 21 66 44 155 51 197 10 64 16
78 32 80 11 2 29 20 40 41 10 20 22 37 27 37 4 0 28 -11 53 -25z m1195 -14
c111 -56 198 -81 278 -81 79 0 133 16 170 51 l22 21 74 -23 c84 -26 89 -29 90
-55 1 -64 -13 -321 -22 -384 -18 -133 -106 -551 -118 -561 -4 -3 -41 -29 -83
-58 -42 -28 -103 -76 -137 -106 -67 -61 -78 -59 -89 12 -3 21 -14 50 -24 64
-18 25 -18 27 6 62 14 20 25 46 25 59 0 29 6 36 56 76 23 18 55 32 70 33 29 1
29 1 4 8 -28 9 -65 -6 -94 -38 -11 -12 -22 -21 -26 -21 -4 0 -12 24 -19 53
-16 72 -81 201 -135 269 -44 56 -121 116 -230 182 -60 36 -164 66 -238 69
l-45 2 41 77 41 77 25 -32 c118 -152 345 -310 483 -336 49 -9 111 -1 162 20
29 12 29 13 -35 20 -79 9 -151 35 -213 78 -26 18 -47 33 -47 35 0 2 21 -1 46
-7 122 -28 335 59 374 152 10 25 15 28 34 21 39 -14 76 0 107 43 34 48 40 113
12 144 -10 10 -15 14 -12 8 20 -34 19 -69 -5 -120 -20 -41 -32 -54 -53 -58
-31 -6 -46 0 -37 14 3 5 14 7 25 4 11 -4 19 -2 19 4 0 6 -3 10 -7 9 -21 -5
-53 16 -60 39 -12 36 16 95 53 111 14 7 24 15 21 18 -11 11 -68 -28 -88 -59
-15 -24 -19 -44 -16 -84 3 -51 3 -53 -27 -63 -149 -53 -371 7 -550 150 l-79
63 39 20 c37 19 114 44 142 46 7 1 38 -12 70 -28z m1301 -21 c23 -11 47 -17
52 -14 5 3 19 -2 31 -10 26 -19 16 -21 -15 -4 -20 10 -21 10 -8 -6 18 -22 13
-25 -45 -28 -38 -2 -49 0 -49 12 0 8 -10 16 -23 18 -23 4 -23 3 -6 -24 l18
-27 -48 6 c-26 4 -52 9 -57 13 -14 8 -11 32 7 59 21 32 79 33 143 5z m-251
-20 c-15 -23 -30 -25 -61 -8 -21 12 -19 13 23 19 25 3 46 7 48 7 1 1 -3 -7
-10 -18z m36 -14 c-3 -9 -13 -16 -22 -16 -13 0 -12 3 3 20 20 23 29 21 19 -4z
m442 -25 c43 -15 110 -36 147 -46 l69 -18 68 -91 c37 -50 86 -115 109 -145 23
-29 41 -57 41 -62 0 -5 -33 13 -73 39 -40 26 -123 74 -186 107 -90 48 -119 69
-142 102 -16 22 -49 61 -74 86 -40 40 -52 57 -42 57 2 0 39 -13 83 -29z m-47
-42 c58 -59 111 -157 111 -206 0 -18 -6 -49 -14 -67 -27 -64 -181 -119 -285
-101 -25 4 -41 12 -41 21 0 7 -12 16 -27 19 -87 18 -197 98 -258 185 -15 22
-33 40 -40 40 -7 0 -15 14 -17 30 -3 17 -4 30 -4 30 1 0 30 -8 66 -18 56 -15
72 -24 115 -71 97 -104 233 -140 335 -88 62 31 86 77 71 134 -6 23 -27 63 -46
88 -19 25 -35 47 -35 50 0 16 25 -1 69 -46z m-49 1 c22 -30 13 -43 -10 -15 -7
8 -21 15 -31 15 -12 0 -16 5 -13 15 9 24 31 18 54 -15z m1650 -75 c52 -26 98
-79 131 -150 24 -51 25 -180 3 -254 -17 -60 -80 -129 -126 -138 -15 -3 -28
-10 -28 -15 0 -6 10 -7 23 -3 35 11 56 11 58 0 2 -11 -100 -29 -110 -20 -3 4
1 10 9 16 13 8 13 10 0 19 -8 5 -23 7 -32 4 -10 -3 -33 0 -52 7 -32 12 -33 14
-24 42 7 18 13 25 18 17 10 -17 19 11 26 79 7 62 -7 108 -33 118 -10 4 -22 11
-26 17 -5 6 -5 -5 0 -24 14 -63 9 -182 -10 -218 -19 -35 -70 -72 -100 -72 -16
0 -15 3 6 33 56 74 61 158 17 260 -37 87 -69 130 -115 151 -46 22 -39 30 19
22 30 -5 62 -20 98 -48 48 -38 50 -39 23 -9 -16 18 -47 42 -69 53 l-38 20 28
29 c16 17 49 44 73 60 61 40 157 42 231 4z m-1833 -45 c7 -14 14 -28 15 -32 2
-3 17 -9 33 -12 17 -4 23 -3 15 1 -10 4 -2 10 25 18 36 10 41 9 45 -7 5 -18 8
-17 53 5 50 26 57 20 36 -26 -14 -31 -70 -57 -134 -64 -84 -9 -217 58 -256
129 -8 15 -1 16 73 15 77 -2 83 -4 95 -27z m1352 -79 c108 -122 145 -156 182
-167 40 -12 53 -44 17 -44 -36 0 -79 32 -139 101 -30 35 -86 96 -125 135 -69
69 -70 71 -37 61 24 -8 56 -35 102 -86z m-873 -9 c138 -73 214 -120 214 -132
0 -13 -43 -21 -152 -27 -93 -5 -108 -4 -108 9 0 9 -8 26 -18 38 l-17 22 -19
-21 c-20 -22 -51 -28 -60 -12 -3 5 1 14 9 21 21 17 38 111 26 143 -6 15 -9 27
-7 27 2 0 62 -31 132 -68z m-4620 10 c-3 -5 -18 -7 -33 -4 l-28 6 30 6 c34 7
40 5 31 -8z m-93 -9 c-7 -2 -19 -2 -25 0 -7 3 -2 5 12 5 14 0 19 -2 13 -5z
m4003 -45 l29 -33 -32 29 c-31 28 -38 36 -30 36 2 0 16 -15 33 -32z m-1297
-43 c101 -32 175 -82 279 -188 63 -65 90 -102 116 -158 60 -132 71 -228 31
-287 -23 -34 -25 -35 -25 -12 -1 49 -29 161 -55 213 -60 119 -144 203 -291
289 -130 76 -179 92 -276 93 -49 0 -88 3 -88 6 0 26 109 68 177 69 29 0 87
-11 132 -25z m-614 5 c17 -4 22 -8 12 -9 -38 -2 -99 -44 -176 -119 l-81 -78
-22 23 -21 23 81 80 c95 94 74 89 -27 -5 l-67 -64 -47 38 c-46 38 -46 39 -26
57 62 56 87 63 219 63 69 -1 139 -5 155 -9z m-2098 -27 c-20 -2 -52 -2 -70 0
-17 2 0 4 38 4 39 0 53 -2 32 -4z m-170 -9 c-3 -3 -12 -4 -19 -1 -8 3 -5 6 6
6 11 1 17 -2 13 -5z m4823 -30 c0 -6 -18 -14 -41 -18 -39 -6 -89 -43 -89 -66
0 -5 9 -19 20 -30 41 -41 -26 -15 -73 28 -29 28 -23 42 21 42 17 0 22 6 22 25
0 31 18 39 55 25 24 -9 31 -7 48 11 16 17 21 18 28 7 5 -7 9 -18 9 -24z m-150
-13 c0 -5 -12 -12 -27 -16 -63 -15 -62 -42 2 -91 25 -19 53 -29 93 -33 51 -5
57 -9 60 -31 5 -36 31 -60 64 -60 27 0 28 -2 28 -45 0 -54 16 -88 62 -133 67
-64 158 -50 158 24 0 19 -6 47 -14 62 -28 53 -110 112 -156 112 -22 0 -23 1
-15 23 5 12 20 11 103 -3 84 -14 119 -27 262 -97 91 -45 177 -84 192 -87 17
-4 43 -28 72 -67 47 -63 59 -92 29 -68 -15 11 -15 10 1 -8 10 -13 22 -21 25
-19 7 5 46 -48 57 -77 8 -21 9 -21 -101 2 -107 22 -246 66 -370 116 l-90 36
-45 -53 c-94 -111 -234 -223 -400 -320 -75 -44 -179 -92 -185 -86 -2 2 6 28
17 58 64 176 79 224 93 304 25 148 15 315 -30 462 -8 27 -15 52 -15 55 0 4 19
12 43 18 23 6 49 15 57 21 19 12 30 13 30 1z m-3114 -76 c-17 -31 -66 -86 -66
-73 0 11 32 81 47 105 11 17 19 21 27 13 7 -7 5 -20 -8 -45z m-64 13 c-7 -7
-12 -8 -12 -2 0 14 12 26 19 19 2 -3 -1 -11 -7 -17z m-552 -52 c0 -2 -8 -10
-17 -17 -16 -13 -17 -12 -4 4 13 16 21 21 21 13z m400 0 c0 -2 -8 -10 -17 -17
-16 -13 -17 -12 -4 4 13 16 21 21 21 13z m-80 -9 c0 -2 -10 -12 -22 -23 l-23
-19 19 23 c18 21 26 27 26 19z m5255 -17 c3 -5 1 -10 -4 -10 -6 0 -11 5 -11
10 0 6 2 10 4 10 3 0 8 -4 11 -10z m-5215 -14 c0 -2 -8 -10 -17 -17 -16 -13
-17 -12 -4 4 13 16 21 21 21 13z m5110 1 c0 -2 -14 -16 -32 -33 -30 -28 -30
-17 0 19 13 15 32 23 32 14z m-1519 -17 c25 0 24 -26 0 -40 -28 -14 -38 -13
-61 10 -30 30 -25 44 11 36 17 -3 40 -6 50 -6z m-4001 -4 c0 -2 -8 -10 -17
-17 -16 -13 -17 -12 -4 4 13 16 21 21 21 13z m5530 -30 c0 -2 -8 -10 -17 -17
-16 -13 -17 -12 -4 4 13 16 21 21 21 13z m-1372 -79 c26 -26 35 -46 39 -80 5
-39 2 -47 -16 -57 -74 -39 -194 89 -162 174 10 25 10 25 58 11 26 -8 62 -29
81 -48z m1279 38 c0 -8 -4 -12 -9 -9 -5 3 -6 10 -3 15 9 13 12 11 12 -6z
m-165 -37 c-10 -10 -44 0 -37 12 3 5 14 6 26 3 12 -3 17 -9 11 -15z m-339
-150 c30 -51 41 -57 67 -33 15 14 21 10 67 -32 29 -27 56 -63 62 -83 11 -36
39 -71 87 -109 15 -12 24 -24 21 -28 -4 -3 -54 -1 -111 5 -91 10 -115 17 -178
50 l-73 39 -16 114 c-9 63 -19 131 -23 151 -6 35 -5 39 26 58 l33 20 5 -53 c3
-32 16 -70 33 -99z m84 141 c9 -9 4 -27 -18 -71 -16 -32 -33 -56 -38 -54 -15
10 -41 73 -41 99 0 16 7 27 18 30 33 9 68 7 79 -4z m136 -18 c-4 -16 -8 -19
-14 -10 -4 7 -3 19 3 26 14 18 19 12 11 -16z m-48 -8 c-11 -3 -26 -12 -32 -21
-11 -14 -13 -14 -13 -1 0 22 10 29 39 28 21 -1 22 -2 6 -6z m-4463 -29 c4 -3
8 -28 8 -55 0 -58 16 -101 55 -147 27 -32 27 -33 9 -53 -17 -19 -18 -19 -60
22 -37 36 -45 40 -59 29 -22 -18 -19 -36 13 -81 27 -39 39 -45 58 -32 5 5 -4
-4 -20 -19 -40 -37 -59 -35 -93 7 -15 19 -33 35 -40 35 -6 0 -23 14 -37 30
-27 32 -34 67 -38 192 l-3 77 40 4 c44 5 155 -2 167 -9z m4171 -6 c19 -79 48
-354 38 -363 -2 -3 -27 37 -54 88 -27 50 -75 128 -107 172 l-58 80 42 7 c22 3
59 13 81 22 53 19 52 19 58 -6z m324 -10 c-3 -8 -6 -5 -6 6 -1 11 2 17 5 13 3
-3 4 -12 1 -19z m-30 -113 c9 -25 -2 -27 -22 -5 -17 18 -17 20 -1 20 9 0 19
-7 23 -15z m-5080 -162 c9 -23 -6 -27 -27 -8 -11 10 -20 21 -20 26 0 12 41 -3
47 -18z m5264 0 c13 -16 12 -17 -3 -4 -17 13 -22 21 -14 21 2 0 10 -8 17 -17z
m64 -41 c-3 -3 -11 0 -18 7 -9 10 -8 11 6 5 10 -3 15 -9 12 -12z m-4943 -14
c14 -12 62 -178 53 -186 -1 -2 -19 18 -39 44 -23 30 -36 58 -36 78 0 17 -3 41
-6 54 -7 25 4 28 28 10z m4913 2 c3 -6 -1 -7 -9 -4 -18 7 -21 14 -7 14 6 0 13
-4 16 -10z m-3555 -208 c0 -2 -11 -19 -24 -39 -44 -65 -67 -73 -198 -73 -113
0 -118 1 -118 21 0 16 4 19 18 14 9 -4 43 -9 74 -12 48 -5 66 -2 111 20 29 15
63 37 75 50 17 18 62 33 62 19z"/>
<path d="M2770 6815 c0 -5 5 -17 10 -25 5 -8 10 -10 10 -5 0 6 -5 17 -10 25
-5 8 -10 11 -10 5z"/>
<path d="M2806 6720 c3 -14 11 -32 16 -40 6 -10 7 -7 2 10 -3 14 -11 32 -16
40 -6 10 -7 7 -2 -10z"/>
<path d="M3100 6200 c34 -11 60 -11 35 0 -11 5 -29 8 -40 8 -16 0 -15 -2 5 -8z"/>
<path d="M3462 6570 c0 -19 2 -27 5 -17 2 9 2 25 0 35 -3 9 -5 1 -5 -18z"/>
<path d="M3442 6430 c0 -14 2 -19 5 -12 2 6 2 18 0 25 -3 6 -5 1 -5 -13z"/>
<path d="M3425 6355 c-3 -26 -4 -49 -2 -51 3 -3 8 16 12 41 3 26 4 49 2 51 -3
3 -8 -16 -12 -41z"/>
<path d="M3411 6274 c0 -11 3 -14 6 -6 3 7 2 16 -1 19 -3 4 -6 -2 -5 -13z"/>
<path d="M3881 6564 c0 -11 3 -14 6 -6 3 7 2 16 -1 19 -3 4 -6 -2 -5 -13z"/>
<path d="M3833 6314 c-6 -25 -7 -42 -3 -37 9 9 25 83 18 83 -3 0 -9 -21 -15
-46z"/>
<path d="M2126 6535 c32 -55 124 -190 124 -183 0 12 -88 152 -116 183 l-26 30
18 -30z"/>
<path d="M1926 5962 c5 -4 25 -21 44 -37 l35 -30 -34 38 c-19 20 -39 37 -45
37 -6 0 -6 -3 0 -8z"/>
<path d="M4585 5848 c11 -6 47 -29 79 -51 32 -22 56 -35 52 -29 -9 15 -126 92
-140 92 -6 0 -2 -6 9 -12z"/>
<path d="M3818 5055 c16 -30 41 -61 41 -50 0 6 -11 24 -25 40 -14 17 -21 21
-16 10z"/>
<path d="M4175 5159 c-52 -30 -62 -94 -20 -133 48 -45 107 -37 133 17 15 30 3
85 -22 106 -20 17 -69 22 -91 10z m99 -97 c3 -5 -2 -18 -10 -30 -15 -22 -38
-27 -68 -16 -14 5 -12 10 9 30 26 24 59 31 69 16z"/>
<path d="M3315 4908 c-32 -19 -44 -40 -45 -81 0 -74 84 -115 141 -68 19 15 24
29 24 66 0 39 -5 51 -28 71 -30 26 -61 30 -92 12z m82 -131 c-2 -7 -20 -13
-40 -15 -28 -2 -38 1 -47 18 -9 17 -7 22 12 29 27 10 82 -13 75 -32z"/>
<path d="M5400 5139 c0 -8 -27 -44 -60 -81 -33 -36 -60 -71 -60 -78 0 -6 23
14 51 45 83 90 93 105 80 118 -8 8 -11 7 -11 -4z"/>
<path d="M4946 4443 c2 -6 -4 -14 -12 -17 -22 -8 -17 -25 6 -19 11 3 20 12 20
20 0 8 4 11 10 8 6 -3 7 1 3 10 -4 12 -8 13 -13 5 -4 -7 -10 -8 -12 -4 -3 5
-3 4 -2 -3z"/>
<path d="M4964 4406 c-3 -8 -11 -13 -17 -10 -19 6 -41 -12 -31 -27 5 -8 9 -18
9 -24 2 -21 17 -45 26 -39 5 3 9 0 9 -6 0 -6 -7 -13 -15 -16 -24 -10 -17 -23
8 -18 18 3 27 -2 35 -21 6 -13 10 -32 8 -42 -2 -10 5 -27 15 -37 14 -14 19
-16 19 -5 0 25 -31 193 -38 204 -4 5 -5 17 -4 27 4 21 -16 34 -24 14z"/>
<path d="M4890 4319 c0 -5 5 -7 10 -4 6 3 10 8 10 11 0 2 -4 4 -10 4 -5 0 -10
-5 -10 -11z"/>
<path d="M4940 4246 c0 -2 7 -6 15 -10 8 -3 15 -1 15 4 0 6 -7 10 -15 10 -8 0
-15 -2 -15 -4z"/>
<path d="M2080 4936 c0 -32 11 -33 36 -3 10 12 12 16 4 10 -16 -15 -34 -17
-25 -4 3 5 1 12 -5 16 -6 4 -10 -5 -10 -19z"/>
<path d="M3071 4534 c13 -16 29 -19 29 -5 0 5 -9 11 -21 14 -16 4 -18 3 -8 -9z"/>
<path d="M3210 4486 c0 -2 7 -7 16 -10 8 -3 12 -2 9 4 -6 10 -25 14 -25 6z"/>
<path d="M3571 4424 c0 -11 3 -14 6 -6 3 7 2 16 -1 19 -3 4 -6 -2 -5 -13z"/>
<path d="M3542 4410 c0 -14 2 -19 5 -12 2 6 2 18 0 25 -3 6 -5 1 -5 -13z"/>
<path d="M3581 4386 c-20 -11 -21 -14 -7 -19 10 -4 15 -3 11 3 -4 6 5 10 20
10 15 0 24 4 20 10 -8 13 -15 12 -44 -4z"/>
<path d="M3600 4360 c0 -5 5 -10 10 -10 6 0 10 5 10 10 0 6 -4 10 -10 10 -5 0
-10 -4 -10 -10z"/>
<path d="M3549 4355 c-6 -23 -2 -65 6 -65 6 0 5 -4 -2 -8 -6 -4 -14 -19 -18
-33 -7 -29 18 -64 41 -55 7 3 14 0 16 -6 2 -6 15 4 28 23 13 19 31 39 40 46
13 10 11 11 -7 6 -13 -3 -23 -9 -23 -13 0 -15 -56 -49 -68 -41 -6 3 -9 17 -5
29 3 12 9 20 13 17 4 -2 15 2 25 9 17 13 18 15 3 30 -22 22 -27 20 -22 -6 4
-23 4 -23 -6 0 -14 33 -2 47 21 26 17 -15 24 -13 20 9 0 4 4 7 9 7 6 0 10 -7
10 -15 0 -13 4 -14 23 -3 20 11 20 13 4 16 -17 3 -17 5 -1 16 15 12 15 13 -2
13 -11 0 -22 -4 -25 -9 -3 -5 -20 -10 -37 -12 -23 -3 -29 -1 -25 10 3 8 0 14
-6 14 -6 0 -12 -2 -12 -5z"/>
<path d="M3684 4339 c0 -10 4 -19 8 -19 4 0 8 6 8 14 0 8 -4 17 -8 20 -4 2 -8
-4 -8 -15z"/>
<path d="M3546 4161 c-4 -7 -5 -15 -2 -18 9 -9 19 4 14 18 -4 11 -6 11 -12 0z"/>
<path d="M4702 3660 c0 -19 2 -27 5 -17 2 9 2 25 0 35 -3 9 -5 1 -5 -18z"/>
<path d="M4592 3640 c0 -14 2 -19 5 -12 2 6 2 18 0 25 -3 6 -5 1 -5 -13z"/>
<path d="M4977 3608 c-2 -13 -8 -32 -12 -43 -8 -19 -6 -18 17 3 13 12 30 22
36 22 15 0 15 13 0 28 -19 19 -35 14 -41 -10z"/>
<path d="M4690 3380 c-12 -8 -12 -10 5 -10 11 0 27 5 35 10 12 8 12 10 -5 10
-11 0 -27 -5 -35 -10z"/>
<path d="M3427 3309 c4 -13 8 -18 11 -10 2 7 -1 18 -6 23 -8 8 -9 4 -5 -13z"/>
<path d="M3312 3290 c0 -19 2 -27 5 -17 2 9 2 25 0 35 -3 9 -5 1 -5 -18z"/>
<path d="M3426 3223 c-6 -14 -5 -15 5 -6 7 7 10 15 7 18 -3 3 -9 -2 -12 -12z"/>
<path d="M3330 3226 c0 -2 8 -10 18 -17 15 -13 16 -12 3 4 -13 16 -21 21 -21
13z"/>
<path d="M3570 3168 c0 -3 -7 -22 -15 -42 -8 -20 -13 -36 -10 -36 9 0 37 71
31 78 -3 3 -6 3 -6 0z"/>
<path d="M3210 3025 c0 -23 2 -24 21 -15 11 6 35 9 52 6 l32 -6 -30 14 c-65
29 -75 30 -75 1z"/>
<path d="M3475 3014 c-22 -7 -41 -14 -42 -14 -2 0 -3 -5 -3 -11 0 -11 19 -7
75 15 43 18 17 27 -30 10z"/>
<path d="M4520 2864 c-75 -16 -101 -26 -49 -19 28 4 45 -1 82 -26 52 -34 62
-58 54 -122 -4 -31 -3 -37 4 -24 16 27 22 148 10 180 -12 30 -11 30 -101 11z"/>
<path d="M4130 2739 c-19 -12 -40 -29 -47 -38 -25 -33 -8 -128 29 -158 9 -8 5
6 -10 37 -33 68 -22 113 40 153 49 32 39 37 -12 6z"/>
<path d="M3340 4428 c0 -62 9 -77 48 -80 27 -2 40 -9 48 -26 15 -30 23 -17 17
25 -6 39 -67 113 -94 113 -15 0 -19 -7 -19 -32z"/>
<path d="M1954 3908 c-4 -7 -14 -24 -22 -38 -14 -24 -13 -24 3 -5 20 24 37 55
31 55 -3 0 -8 -6 -12 -12z"/>
<path d="M1062 3700 c0 -14 2 -19 5 -12 2 6 2 18 0 25 -3 6 -5 1 -5 -13z"/>
<path d="M1053 3555 c0 -33 2 -45 4 -27 2 18 2 45 0 60 -2 15 -4 0 -4 -33z"/>
<path d="M1041 3443 c0 -12 -4 -30 -7 -40 -5 -14 -4 -15 5 -7 7 6 11 24 8 40
-3 21 -4 23 -6 7z"/>
<path d="M1422 4375 c-20 -159 -23 -150 61 -175 39 -13 91 -25 113 -27 l42 -5
11 64 c14 81 14 148 0 148 -5 0 -8 -4 -4 -9 5 -9 -7 -110 -20 -168 l-5 -22
-91 25 c-50 13 -93 24 -96 24 -9 0 8 194 18 206 6 7 4 16 -4 23 -11 9 -16 -6
-25 -84z"/>
<path d="M1469 4273 l-24 -28 28 24 c25 23 32 31 24 31 -2 0 -14 -12 -28 -27z"/>
<path d="M4130 4221 c0 -36 31 -67 89 -90 74 -29 90 -45 73 -72 -11 -17 -9
-19 12 -19 26 0 66 41 66 68 0 13 -3 12 -14 -3 -13 -18 -15 -18 -46 13 -19 19
-30 39 -26 47 3 10 -7 21 -33 35 -50 25 -121 37 -121 21z"/>
<path d="M1150 4206 c30 -12 70 -30 88 -40 17 -9 32 -13 32 -8 0 10 -142 72
-162 72 -7 -1 12 -11 42 -24z"/>
<path d="M1110 4135 c0 -5 5 -17 10 -25 5 -8 10 -10 10 -5 0 6 -5 17 -10 25
-5 8 -10 11 -10 5z"/>
<path d="M1180 4020 c12 -16 24 -30 26 -30 3 0 -4 14 -16 30 -12 17 -24 30
-26 30 -3 0 4 -13 16 -30z"/>
<path d="M3326 3939 c-10 -51 -17 -113 -11 -107 7 7 24 121 19 127 -2 2 -5 -7
-8 -20z"/>
<path d="M5217 3658 c7 -8 10 -18 7 -21 -6 -6 92 -137 102 -137 13 0 -88 154
-108 166 -10 6 -10 5 -1 -8z"/>
<path d="M4099 1982 c-3 -20 -2 -29 4 -23 5 5 7 19 5 32 -3 20 -5 19 -9 -9z"/>
<path d="M5213 1550 c14 -70 33 -107 67 -131 20 -15 48 -30 61 -34 14 -4 4 6
-22 23 -34 22 -53 45 -77 93 -18 35 -31 57 -29 49z"/>
<path d="M5197 1463 c-13 -12 -7 -74 9 -106 31 -60 95 -126 167 -173 40 -26
92 -60 117 -77 l45 -30 -25 27 c-14 15 -56 46 -95 69 -138 81 -222 183 -212
259 5 40 5 42 -6 31z"/>
<path d="M5580 506 c0 -2 8 -10 18 -17 15 -13 16 -12 3 4 -13 16 -21 21 -21
13z"/>
<path d="M5040 652 c0 -40 81 -55 104 -20 14 22 11 24 -51 32 -47 6 -53 5 -53
-12z"/>
<path d="M1421 610 c0 -8 4 -22 9 -30 12 -18 12 -2 0 25 -6 13 -9 15 -9 5z"/>
<path d="M1441 462 c-1 -14 27 -72 35 -72 2 0 -2 12 -9 28 -8 15 -17 34 -20
42 -4 10 -6 11 -6 2z"/>
<path d="M4320 6500 c-9 -6 -10 -10 -3 -10 6 0 15 5 18 10 8 12 4 12 -15 0z"/>
<path d="M1180 6120 c34 -27 127 -73 140 -68 6 2 -29 22 -77 46 -48 24 -77 34
-63 22z"/>
<path d="M1470 6060 c0 -5 5 -10 11 -10 5 0 7 5 4 10 -3 6 -8 10 -11 10 -2 0
-4 -4 -4 -10z"/>
<path d="M1370 6042 c23 -14 79 -22 84 -13 3 4 -8 8 -24 9 -17 0 -40 3 -53 7
-16 4 -18 3 -7 -3z"/>
<path d="M5785 4816 c247 -52 378 -110 465 -203 30 -32 60 -68 67 -78 10 -17
12 -17 12 -3 1 24 -95 126 -156 164 -100 64 -295 126 -438 139 -47 4 -36 0 50
-19z"/>
<path d="M6045 4658 c104 -95 180 -210 169 -255 -3 -11 -27 -32 -52 -47 -26
-14 -41 -26 -34 -26 18 0 71 28 95 51 19 18 20 20 3 64 -18 46 -70 119 -135
189 l-36 38 85 -51 c47 -28 100 -68 118 -88 17 -20 32 -32 32 -27 0 27 -101
108 -191 154 -54 28 -100 50 -104 50 -4 0 19 -23 50 -52z"/>
<path d="M0 4518 c0 -7 25 -31 56 -53 97 -70 94 -66 44 -64 -70 3 -100 0 -100
-10 0 -4 21 -6 48 -4 26 3 83 -1 127 -7 148 -22 153 -21 66 10 -93 33 -155 66
-206 112 -22 19 -35 25 -35 16z"/>
<path d="M5350 3766 c0 -2 8 -10 18 -17 15 -13 16 -12 3 4 -13 16 -21 21 -21
13z"/>
<path d="M5640 3334 c1 -16 28 -45 34 -36 3 5 -3 17 -14 27 -11 10 -20 14 -20
9z"/>
<path d="M1430 2773 c-30 -7 -70 -14 -88 -15 -39 -2 -36 -4 50 -51 l67 -36 7
37 c4 20 11 45 16 55 5 10 8 20 6 21 -2 1 -28 -3 -58 -11z"/>
<path d="M290 2645 c-14 -8 -20 -14 -14 -15 5 0 19 7 30 15 24 18 16 19 -16 0z"/>
<path d="M318 2623 c7 -3 16 -2 19 1 4 3 -2 6 -13 5 -11 0 -14 -3 -6 -6z"/>
<path d="M6770 2081 c8 -5 42 -14 75 -21 33 -6 81 -18 108 -25 39 -12 47 -12
47 0 0 14 -49 28 -160 45 -78 12 -90 12 -70 1z"/>
<path d="M6264 1858 l-19 -23 23 19 c21 18 27 26 19 26 -2 0 -12 -10 -23 -22z"/>
<path d="M6866 1729 c-3 -17 -6 -52 -6 -78 0 -63 -24 -158 -45 -181 -20 -22
-61 -28 -49 -7 6 9 3 8 -8 -1 -9 -7 -29 -17 -45 -22 -21 -6 -6 -9 57 -9 88 -1
138 -17 201 -62 23 -16 29 -17 29 -6 0 8 -16 25 -37 37 l-36 21 34 21 c42 25
44 27 36 34 -3 4 -22 -4 -42 -16 -30 -18 -41 -20 -73 -13 -25 7 -36 14 -33 24
17 58 41 273 32 282 -5 5 -11 -6 -15 -24z"/>
<path d="M6040 1453 c0 -5 10 -18 23 -29 l22 -19 -20 25 c-11 14 -21 27 -22
29 -2 2 -3 0 -3 -6z"/>
<path d="M6599 1273 l-24 -28 28 24 c15 14 27 26 27 28 0 8 -8 1 -31 -24z"/>
<path d="M6945 978 c-64 -51 -66 -54 -30 -35 39 21 91 64 85 70 -3 3 -27 -13
-55 -35z"/>
<path d="M6760 805 c0 -4 7 -20 16 -37 9 -16 22 -60 30 -97 l14 -66 -4 61 c-2
35 -13 78 -25 102 -19 38 -31 52 -31 37z"/>
<path d="M6224 665 c-9 -50 0 -53 13 -5 5 22 7 40 2 40 -4 0 -11 -16 -15 -35z"/>
<path d="M650 650 c0 -6 7 -24 15 -41 16 -29 15 -30 -42 -97 -32 -37 -83 -100
-113 -140 -51 -67 -60 -73 -119 -92 -79 -25 -234 -56 -323 -65 l-68 -7 0 -104
0 -104 225 0 225 0 110 55 c60 30 122 55 137 55 16 0 61 9 101 19 l73 19 23
-46 c29 -58 49 -75 102 -90 53 -15 53 -15 47 7 -3 13 -17 21 -43 25 -44 7 -70
36 -115 126 -15 30 -43 81 -61 112 -19 31 -61 128 -93 214 -32 87 -63 160 -70
162 -6 2 -11 -1 -11 -8z"/>
<path d="M6780 570 l-25 -8 28 -1 c15 -1 27 4 27 9 0 6 -1 10 -2 9 -2 -1 -14
-5 -28 -9z"/>
<path d="M6276 481 c-5 -8 -2 -20 8 -29 17 -17 19 -9 7 22 -6 15 -10 16 -15 7z"/>
<path d="M6481 367 c-13 -40 -26 -78 -29 -84 -2 -7 0 -13 4 -13 9 0 60 157 53
164 -2 2 -15 -28 -28 -67z"/>
<path d="M5370 380 c21 -14 259 -90 279 -89 9 0 -51 23 -134 50 -157 51 -169
55 -145 39z"/>
<path d="M1171 164 c0 -11 3 -14 6 -6 3 7 2 16 -1 19 -3 4 -6 -2 -5 -13z"/>
<path d="M1207 78 c38 -64 48 -78 56 -78 4 0 -9 25 -29 55 -40 60 -58 75 -27
23z"/>
</g>
</svg>
